<svg width="252" height="40" viewBox="0 0 252 40" fill="none" xmlns="http://www.w3.org/2000/svg">
<path d="M14.0967 25V23.7867H16.255V18.6883H14.2717V17.6033L14.855 17.5683C15.1739 17.545 15.4461 17.4944 15.6717 17.4167C15.905 17.3389 16.0917 17.1833 16.2317 16.95C16.3794 16.7167 16.4922 16.3667 16.57 15.9H17.8417V23.7867H19.8367V25H14.0967ZM27.4891 25.175C26.3846 25.175 25.5563 24.8444 25.0041 24.1833C24.4596 23.5144 24.1874 22.62 24.1874 21.5C24.1874 20.38 24.4596 19.4894 25.0041 18.8283C25.5563 18.1594 26.3846 17.825 27.4891 17.825C28.6091 17.825 29.4413 18.1594 29.9858 18.8283C30.5302 19.4894 30.8024 20.38 30.8024 21.5C30.8024 22.62 30.5302 23.5144 29.9858 24.1833C29.4413 24.8444 28.6091 25.175 27.4891 25.175ZM27.5008 24.0317C28.0763 24.0317 28.4963 23.8139 28.7608 23.3783C29.033 22.935 29.1691 22.3089 29.1691 21.5C29.1691 20.6911 29.033 20.0689 28.7608 19.6333C28.4963 19.19 28.0763 18.9683 27.5008 18.9683C26.9174 18.9683 26.4896 19.19 26.2174 19.6333C25.953 20.0689 25.8208 20.6911 25.8208 21.5C25.8208 22.3089 25.953 22.935 26.2174 23.3783C26.4896 23.8139 26.9174 24.0317 27.5008 24.0317ZM32.3729 25V19.155H31.3695V18H32.3729V17.5683C32.3729 17.1872 32.439 16.8528 32.5712 16.565C32.7034 16.2772 32.9212 16.0517 33.2245 15.8883C33.5356 15.725 33.9595 15.6433 34.4962 15.6433C34.6906 15.6433 34.8734 15.655 35.0445 15.6783V16.8217C34.9512 16.7983 34.8268 16.7867 34.6712 16.7867C34.3679 16.7867 34.1618 16.8567 34.0529 16.9967C33.9518 17.1367 33.9012 17.3389 33.9012 17.6033V18H35.0445V19.155H33.9012V25H32.3729ZM38.7106 22.8183V21.4183L42.5139 15.9H44.2289V15.97L41.2539 20.2517C41.1373 20.4228 41.0089 20.5978 40.8689 20.7767C40.7367 20.9478 40.5812 21.1228 40.4023 21.3017V21.5817H45.6056V22.8183H38.7106ZM42.8523 25V22.2H42.8873V20.03H44.2989V22.2117H44.3339V25H42.8523ZM50.152 25.1633C49.4597 25.1633 48.8647 25.0233 48.367 24.7433C47.8692 24.4556 47.4881 24.0706 47.2236 23.5883C46.967 23.0983 46.8386 22.5461 46.8386 21.9317C46.8386 21.4261 46.9164 20.9517 47.072 20.5083C47.2275 20.065 47.4258 19.6411 47.667 19.2367C47.9158 18.8244 48.1725 18.4356 48.437 18.07C48.4992 17.9922 48.5925 17.8678 48.717 17.6967C48.8492 17.5256 48.997 17.3311 49.1603 17.1133C49.3236 16.8956 49.487 16.6817 49.6503 16.4717C49.8136 16.2539 49.9575 16.0633 50.082 15.9H51.937V15.97C51.6181 16.3433 51.2836 16.74 50.9336 17.16C50.5914 17.58 50.2492 18.0078 49.907 18.4433C49.6658 18.7544 49.4675 19.015 49.312 19.225C49.1642 19.435 49.0553 19.5906 48.9853 19.6917H49.2653C49.4131 19.5439 49.5997 19.4156 49.8253 19.3067C50.0586 19.1978 50.3542 19.1433 50.712 19.1433C51.2564 19.1433 51.7308 19.2639 52.1353 19.505C52.5475 19.7461 52.8664 20.0844 53.092 20.52C53.3175 20.9478 53.4303 21.4417 53.4303 22.0017C53.4303 22.5928 53.2981 23.1294 53.0336 23.6117C52.777 24.0861 52.4036 24.4633 51.9136 24.7433C51.4314 25.0233 50.8442 25.1633 50.152 25.1633ZM50.187 23.9617C50.7236 23.9617 51.1436 23.7906 51.447 23.4483C51.7503 23.1061 51.902 22.6472 51.902 22.0717C51.902 21.4728 51.7425 21.01 51.4236 20.6833C51.1125 20.3567 50.6964 20.1933 50.1753 20.1933C49.5997 20.1933 49.1525 20.3722 48.8336 20.73C48.5225 21.08 48.367 21.5233 48.367 22.06C48.367 22.3944 48.4331 22.7056 48.5653 22.9933C48.7053 23.2811 48.9075 23.5144 49.172 23.6933C49.4442 23.8722 49.7825 23.9617 50.187 23.9617ZM56.18 25V24.93C56.4989 24.5567 56.8294 24.1639 57.1716 23.7517C57.5139 23.3394 57.86 22.9078 58.21 22.4567C58.3966 22.2156 58.5755 21.9822 58.7466 21.7567C58.9178 21.5233 59.0461 21.3406 59.1316 21.2083H58.8516C58.7039 21.3483 58.5133 21.4767 58.28 21.5933C58.0544 21.7022 57.7628 21.7567 57.405 21.7567C56.8605 21.7567 56.3822 21.6361 55.97 21.395C55.5655 21.1461 55.2505 20.8078 55.025 20.38C54.7994 19.9522 54.6866 19.4583 54.6866 18.8983C54.6866 18.2917 54.815 17.7511 55.0716 17.2767C55.3361 16.8022 55.7133 16.4289 56.2033 16.1567C56.7011 15.8767 57.2961 15.7367 57.9883 15.7367C58.6883 15.7367 59.2794 15.8806 59.7616 16.1683C60.2516 16.4483 60.625 16.8333 60.8816 17.3233C61.1461 17.8056 61.2783 18.3539 61.2783 18.9683C61.2783 19.4661 61.2005 19.9406 61.045 20.3917C60.8894 20.835 60.6872 21.2589 60.4383 21.6633C60.1972 22.0678 59.9444 22.4567 59.68 22.83C59.6178 22.9078 59.5205 23.0322 59.3883 23.2033C59.2639 23.3744 59.12 23.5689 58.9566 23.7867C58.7933 24.0044 58.63 24.2222 58.4666 24.44C58.3033 24.65 58.1594 24.8367 58.035 25H56.18ZM57.9533 20.695C58.5211 20.695 58.9605 20.52 59.2716 20.17C59.5905 19.82 59.75 19.3767 59.75 18.84C59.75 18.4978 59.6839 18.1867 59.5516 17.9067C59.4194 17.6189 59.2172 17.3894 58.945 17.2183C58.6805 17.0394 58.35 16.95 57.9533 16.95C57.4166 16.95 56.9928 17.1172 56.6816 17.4517C56.3705 17.7861 56.215 18.245 56.215 18.8283C56.215 19.4272 56.3744 19.89 56.6933 20.2167C57.0122 20.5356 57.4322 20.695 57.9533 20.695Z" fill="#9F9FA9"/>
<g opacity="0.5" filter="url(#filter0_d_60_7205)">
<mask id="path-2-inside-1_60_7205" fill="white">
<path d="M94 7C94 3.68629 96.6863 1 100 1H124C127.314 1 130 3.68629 130 7V31C130 34.3137 127.314 37 124 37H100C96.6863 37 94 34.3137 94 31V7Z"/>
</mask>
<path d="M94 7C94 3.68629 96.6863 1 100 1H124C127.314 1 130 3.68629 130 7V31C130 34.3137 127.314 37 124 37H100C96.6863 37 94 34.3137 94 31V7Z" fill="white" fill-opacity="0.045" shape-rendering="crispEdges"/>
<path d="M100 1V2H124V1V0H100V1ZM130 7H129V31H130H131V7H130ZM124 37V36H100V37V38H124V37ZM94 31H95V7H94H93V31H94ZM100 37V36C97.2386 36 95 33.7614 95 31H94H93C93 34.866 96.134 38 100 38V37ZM130 31H129C129 33.7614 126.761 36 124 36V37V38C127.866 38 131 34.866 131 31H130ZM124 1V2C126.761 2 129 4.23858 129 7H130H131C131 3.13401 127.866 0 124 0V1ZM100 1V0C96.134 0 93 3.13401 93 7H94H95C95 4.23858 97.2386 2 100 2V1Z" fill="white" fill-opacity="0.15" mask="url(#path-2-inside-1_60_7205)"/>
<path d="M115.333 23L111.333 19L115.333 15" stroke="#FAFAFA" stroke-width="1.33333" stroke-linecap="round" stroke-linejoin="round"/>
<path d="M108.667 15V23" stroke="#FAFAFA" stroke-width="1.33333" stroke-linecap="round" stroke-linejoin="round"/>
</g>
<g opacity="0.5" filter="url(#filter1_d_60_7205)">
<mask id="path-6-inside-2_60_7205" fill="white">
<path d="M134 7C134 3.68629 136.686 1 140 1H164C167.314 1 170 3.68629 170 7V31C170 34.3137 167.314 37 164 37H140C136.686 37 134 34.3137 134 31V7Z"/>
</mask>
<path d="M134 7C134 3.68629 136.686 1 140 1H164C167.314 1 170 3.68629 170 7V31C170 34.3137 167.314 37 164 37H140C136.686 37 134 34.3137 134 31V7Z" fill="white" fill-opacity="0.045" shape-rendering="crispEdges"/>
<path d="M140 1V2H164V1V0H140V1ZM170 7H169V31H170H171V7H170ZM164 37V36H140V37V38H164V37ZM134 31H135V7H134H133V31H134ZM140 37V36C137.239 36 135 33.7614 135 31H134H133C133 34.866 136.134 38 140 38V37ZM170 31H169C169 33.7614 166.761 36 164 36V37V38C167.866 38 171 34.866 171 31H170ZM164 1V2C166.761 2 169 4.23858 169 7H170H171C171 3.13401 167.866 0 164 0V1ZM140 1V0C136.134 0 133 3.13401 133 7H134H135C135 4.23858 137.239 2 140 2V1Z" fill="white" fill-opacity="0.15" mask="url(#path-6-inside-2_60_7205)"/>
<path d="M154 23L150 19L154 15" stroke="#FAFAFA" stroke-width="1.33333" stroke-linecap="round" stroke-linejoin="round"/>
</g>
<g filter="url(#filter2_d_60_7205)">
<mask id="path-9-inside-3_60_7205" fill="white">
<path d="M174 7C174 3.68629 176.686 1 180 1H204C207.314 1 210 3.68629 210 7V31C210 34.3137 207.314 37 204 37H180C176.686 37 174 34.3137 174 31V7Z"/>
</mask>
<path d="M174 7C174 3.68629 176.686 1 180 1H204C207.314 1 210 3.68629 210 7V31C210 34.3137 207.314 37 204 37H180C176.686 37 174 34.3137 174 31V7Z" fill="white" fill-opacity="0.045" shape-rendering="crispEdges"/>
<path d="M180 1V2H204V1V0H180V1ZM210 7H209V31H210H211V7H210ZM204 37V36H180V37V38H204V37ZM174 31H175V7H174H173V31H174ZM180 37V36C177.239 36 175 33.7614 175 31H174H173C173 34.866 176.134 38 180 38V37ZM210 31H209C209 33.7614 206.761 36 204 36V37V38C207.866 38 211 34.866 211 31H210ZM204 1V2C206.761 2 209 4.23858 209 7H210H211C211 3.13401 207.866 0 204 0V1ZM180 1V0C176.134 0 173 3.13401 173 7H174H175C175 4.23858 177.239 2 180 2V1Z" fill="white" fill-opacity="0.15" mask="url(#path-9-inside-3_60_7205)"/>
<path d="M190 23L194 19L190 15" stroke="#FAFAFA" stroke-width="1.33333" stroke-linecap="round" stroke-linejoin="round"/>
</g>
<g filter="url(#filter3_d_60_7205)">
<mask id="path-12-inside-4_60_7205" fill="white">
<path d="M214 7C214 3.68629 216.686 1 220 1H244C247.314 1 250 3.68629 250 7V31C250 34.3137 247.314 37 244 37H220C216.686 37 214 34.3137 214 31V7Z"/>
</mask>
<path d="M214 7C214 3.68629 216.686 1 220 1H244C247.314 1 250 3.68629 250 7V31C250 34.3137 247.314 37 244 37H220C216.686 37 214 34.3137 214 31V7Z" fill="white" fill-opacity="0.045" shape-rendering="crispEdges"/>
<path d="M220 1V2H244V1V0H220V1ZM250 7H249V31H250H251V7H250ZM244 37V36H220V37V38H244V37ZM214 31H215V7H214H213V31H214ZM220 37V36C217.239 36 215 33.7614 215 31H214H213C213 34.866 216.134 38 220 38V37ZM250 31H249C249 33.7614 246.761 36 244 36V37V38C247.866 38 251 34.866 251 31H250ZM244 1V2C246.761 2 249 4.23858 249 7H250H251C251 3.13401 247.866 0 244 0V1ZM220 1V0C216.134 0 213 3.13401 213 7H214H215C215 4.23858 217.239 2 220 2V1Z" fill="white" fill-opacity="0.15" mask="url(#path-12-inside-4_60_7205)"/>
<path d="M228.667 23L232.667 19L228.667 15" stroke="#FAFAFA" stroke-width="1.33333" stroke-linecap="round" stroke-linejoin="round"/>
<path d="M235.333 15V23" stroke="#FAFAFA" stroke-width="1.33333" stroke-linecap="round" stroke-linejoin="round"/>
</g>
<defs>
<filter id="filter0_d_60_7205" x="92" y="0" width="40" height="40" filterUnits="userSpaceOnUse" color-interpolation-filters="sRGB">
<feFlood flood-opacity="0" result="BackgroundImageFix"/>
<feColorMatrix in="SourceAlpha" type="matrix" values="0 0 0 0 0 0 0 0 0 0 0 0 0 0 0 0 0 0 127 0" result="hardAlpha"/>
<feOffset dy="1"/>
<feGaussianBlur stdDeviation="1"/>
<feComposite in2="hardAlpha" operator="out"/>
<feColorMatrix type="matrix" values="0 0 0 0 0 0 0 0 0 0 0 0 0 0 0 0 0 0 0.05 0"/>
<feBlend mode="normal" in2="BackgroundImageFix" result="effect1_dropShadow_60_7205"/>
<feBlend mode="normal" in="SourceGraphic" in2="effect1_dropShadow_60_7205" result="shape"/>
</filter>
<filter id="filter1_d_60_7205" x="132" y="0" width="40" height="40" filterUnits="userSpaceOnUse" color-interpolation-filters="sRGB">
<feFlood flood-opacity="0" result="BackgroundImageFix"/>
<feColorMatrix in="SourceAlpha" type="matrix" values="0 0 0 0 0 0 0 0 0 0 0 0 0 0 0 0 0 0 127 0" result="hardAlpha"/>
<feOffset dy="1"/>
<feGaussianBlur stdDeviation="1"/>
<feComposite in2="hardAlpha" operator="out"/>
<feColorMatrix type="matrix" values="0 0 0 0 0 0 0 0 0 0 0 0 0 0 0 0 0 0 0.05 0"/>
<feBlend mode="normal" in2="BackgroundImageFix" result="effect1_dropShadow_60_7205"/>
<feBlend mode="normal" in="SourceGraphic" in2="effect1_dropShadow_60_7205" result="shape"/>
</filter>
<filter id="filter2_d_60_7205" x="172" y="0" width="40" height="40" filterUnits="userSpaceOnUse" color-interpolation-filters="sRGB">
<feFlood flood-opacity="0" result="BackgroundImageFix"/>
<feColorMatrix in="SourceAlpha" type="matrix" values="0 0 0 0 0 0 0 0 0 0 0 0 0 0 0 0 0 0 127 0" result="hardAlpha"/>
<feOffset dy="1"/>
<feGaussianBlur stdDeviation="1"/>
<feComposite in2="hardAlpha" operator="out"/>
<feColorMatrix type="matrix" values="0 0 0 0 0 0 0 0 0 0 0 0 0 0 0 0 0 0 0.05 0"/>
<feBlend mode="normal" in2="BackgroundImageFix" result="effect1_dropShadow_60_7205"/>
<feBlend mode="normal" in="SourceGraphic" in2="effect1_dropShadow_60_7205" result="shape"/>
</filter>
<filter id="filter3_d_60_7205" x="212" y="0" width="40" height="40" filterUnits="userSpaceOnUse" color-interpolation-filters="sRGB">
<feFlood flood-opacity="0" result="BackgroundImageFix"/>
<feColorMatrix in="SourceAlpha" type="matrix" values="0 0 0 0 0 0 0 0 0 0 0 0 0 0 0 0 0 0 127 0" result="hardAlpha"/>
<feOffset dy="1"/>
<feGaussianBlur stdDeviation="1"/>
<feComposite in2="hardAlpha" operator="out"/>
<feColorMatrix type="matrix" values="0 0 0 0 0 0 0 0 0 0 0 0 0 0 0 0 0 0 0.05 0"/>
<feBlend mode="normal" in2="BackgroundImageFix" result="effect1_dropShadow_60_7205"/>
<feBlend mode="normal" in="SourceGraphic" in2="effect1_dropShadow_60_7205" result="shape"/>
</filter>
</defs>
</svg>
