<svg width="56" height="96" viewBox="0 0 56 96" fill="none" xmlns="http://www.w3.org/2000/svg">
<g clip-path="url(#clip0_56_421)">
<mask id="path-1-inside-1_56_421" fill="white">
<path d="M0 8C0 3.58172 3.58172 0 8 0H48C52.4183 0 56 3.58172 56 8V88C56 92.4183 52.4183 96 48 96H8C3.58172 96 0 92.4183 0 88V8Z"/>
</mask>
<path d="M0 8C0 3.58172 3.58172 0 8 0H48C52.4183 0 56 3.58172 56 8V88C56 92.4183 52.4183 96 48 96H8C3.58172 96 0 92.4183 0 88V8Z" fill="white" fill-opacity="0.03"/>
<path d="M23 14H29V20" stroke="#00D492" stroke-width="2" stroke-linecap="round" stroke-linejoin="round"/>
<path d="M29 14L20.5 22.5L15.5 17.5L9 24" stroke="#00D492" stroke-width="2" stroke-linecap="round" stroke-linejoin="round"/>
<path d="M40.7221 25V23.6133H43.1888V17.7867H40.9221V16.5467L41.5888 16.5067C41.9532 16.48 42.2643 16.4222 42.5221 16.3333C42.7888 16.2444 43.0021 16.0667 43.1621 15.8C43.331 15.5333 43.4599 15.1333 43.5487 14.6H45.0021V23.6133H47.2821V25H40.7221Z" fill="#00D492"/>
<path d="M23 53H29V47" stroke="#FF6467" stroke-width="2" stroke-linecap="round" stroke-linejoin="round"/>
<path d="M29 53L20.5 44.5L15.5 49.5L9 43" stroke="#FF6467" stroke-width="2" stroke-linecap="round" stroke-linejoin="round"/>
<path d="M35.7903 50.6133V49.12H39.1503V50.6133H35.7903ZM41.1205 54V52.6133H43.5872V46.7867H41.3205V45.5467L41.9872 45.5067C42.3516 45.48 42.6627 45.4222 42.9205 45.3333C43.1872 45.2444 43.4005 45.0667 43.5605 44.8C43.7294 44.5333 43.8583 44.1333 43.9472 43.6H45.4005V52.6133H47.6805V54H41.1205Z" fill="#FF6467"/>
<path d="M12 77H26" stroke="#EEBB01" stroke-width="2" stroke-linecap="round" stroke-linejoin="round"/>
<path d="M19 70L26 77L19 84" stroke="#EEBB01" stroke-width="2" stroke-linecap="round" stroke-linejoin="round"/>
<path d="M44.0021 83.1867C42.6599 83.1867 41.6599 82.7111 41.0021 81.76C40.3443 80.8089 40.0154 79.4889 40.0154 77.8C40.0154 76.1111 40.3443 74.7911 41.0021 73.84C41.6599 72.8889 42.6599 72.4133 44.0021 72.4133C45.3532 72.4133 46.3532 72.8889 47.0021 73.84C47.6599 74.7911 47.9888 76.1111 47.9888 77.8C47.9888 79.4889 47.6599 80.8089 47.0021 81.76C46.3532 82.7111 45.3532 83.1867 44.0021 83.1867ZM44.0021 81.7067C44.7399 81.7067 45.2776 81.3822 45.6154 80.7333C45.9532 80.0756 46.1221 79.0978 46.1221 77.8C46.1221 76.5022 45.9532 75.5289 45.6154 74.88C45.2776 74.2222 44.7399 73.8933 44.0021 73.8933C43.2732 73.8933 42.7354 74.2178 42.3888 74.8667C42.051 75.5156 41.8821 76.4933 41.8821 77.8C41.8821 79.0978 42.051 80.0756 42.3888 80.7333C42.7354 81.3822 43.2732 81.7067 44.0021 81.7067Z" fill="#FCC800"/>
</g>
<path d="M8 0V2H48V0V-2H8V0ZM56 8H54V88H56H58V8H56ZM48 96V94H8V96V98H48V96ZM0 88H2V8H0H-2V88H0ZM8 96V94C4.68629 94 2 91.3137 2 88H0H-2C-2 93.5229 2.47715 98 8 98V96ZM56 88H54C54 91.3137 51.3137 94 48 94V96V98C53.5228 98 58 93.5229 58 88H56ZM48 0V2C51.3137 2 54 4.68629 54 8H56H58C58 2.47715 53.5228 -2 48 -2V0ZM8 0V-2C2.47715 -2 -2 2.47715 -2 8H0H2C2 4.68629 4.68629 2 8 2V0Z" fill="white" fill-opacity="0.05" mask="url(#path-1-inside-1_56_421)"/>
<defs>
<clipPath id="clip0_56_421">
<path d="M0 8C0 3.58172 3.58172 0 8 0H48C52.4183 0 56 3.58172 56 8V88C56 92.4183 52.4183 96 48 96H8C3.58172 96 0 92.4183 0 88V8Z" fill="white"/>
</clipPath>
</defs>
</svg>
