<svg xmlns="http://www.w3.org/2000/svg" id="chart" width="1000" height="500" viewBox="0 0 1000 500"><defs><linearGradient id="areaGradient" x1="0" y1="0" x2="0" y2="1"><stop offset="0%" stop-color="#444cf7" stop-opacity="0.1"/><stop offset="100%" stop-color="#444cf7" stop-opacity="0"/></linearGradient></defs><path d="M0,494C17.667,492.083,35.333,490.167,53,484C70.667,477.833,88.333,457,106,457C123.667,457,141.333,459,159,459C176.667,459,194.333,443.833,212,432C229.667,420.167,247.333,399.667,265,388C282.667,376.333,300.333,371.333,318,362C335.667,352.667,353.333,332,371,332C388.667,332,406.333,358,424,358C441.667,358,459.333,357.333,477,356C494.667,354.667,512.333,284,530,284C547.667,284,565.333,315,583,315C600.667,315,618.333,201,636,201C653.667,201,671.333,325,689,325C706.667,325,724.333,318.333,742,305C759.667,291.667,777.333,268.167,795,234C812.667,199.833,830.333,100,848,100C865.667,100,883.333,132,901,132C918.667,132,936.333,78.205,954,55C966.333,38.8,978.667,24.4,991,10L991,500C978.667,500,966.333,500,954,500C936.333,500,918.667,500,901,500C883.333,500,865.667,500,848,500C830.333,500,812.667,500,795,500C777.333,500,759.667,500,742,500C724.333,500,706.667,500,689,500C671.333,500,653.667,500,636,500C618.333,500,600.667,500,583,500C565.333,500,547.667,500,530,500C512.333,500,494.667,500,477,500C459.333,500,441.667,500,424,500C406.333,500,388.667,500,371,500C353.333,500,335.667,500,318,500C300.333,500,282.667,500,265,500C247.333,500,229.667,500,212,500C194.333,500,176.667,500,159,500C141.333,500,123.667,500,106,500C88.333,500,70.667,500,53,500C35.333,500,17.667,500,0,500Z" fill="url(#areaGradient)"/><path d="M0,494C17.667,492.083,35.333,490.167,53,484C70.667,477.833,88.333,457,106,457C123.667,457,141.333,459,159,459C176.667,459,194.333,443.833,212,432C229.667,420.167,247.333,399.667,265,388C282.667,376.333,300.333,371.333,318,362C335.667,352.667,353.333,332,371,332C388.667,332,406.333,358,424,358C441.667,358,459.333,357.333,477,356C494.667,354.667,512.333,284,530,284C547.667,284,565.333,315,583,315C600.667,315,618.333,201,636,201C653.667,201,671.333,325,689,325C706.667,325,724.333,318.333,742,305C759.667,291.667,777.333,268.167,795,234C812.667,199.833,830.333,100,848,100C865.667,100,883.333,132,901,132C918.667,132,936.333,78.205,954,55C966.333,38.8,978.667,24.4,991,10" fill="none" stroke="#444cf7" stroke-width="4" stroke-linecap="round"/><g><circle cx="0" cy="494" r="8" fill="#444cf7"/><circle cx="53" cy="484" r="8" fill="#444cf7"/><circle cx="106" cy="457" r="8" fill="#444cf7"/><circle cx="159" cy="459" r="8" fill="#444cf7"/><circle cx="212" cy="432" r="8" fill="#444cf7"/><circle cx="265" cy="388" r="8" fill="#444cf7"/><circle cx="318" cy="362" r="8" fill="#444cf7"/><circle cx="371" cy="332" r="8" fill="#444cf7"/><circle cx="424" cy="358" r="8" fill="#444cf7"/><circle cx="477" cy="356" r="8" fill="#444cf7"/><circle cx="530" cy="284" r="8" fill="#444cf7"/><circle cx="583" cy="315" r="8" fill="#444cf7"/><circle cx="636" cy="201" r="8" fill="#444cf7"/><circle cx="689" cy="325" r="8" fill="#444cf7"/><circle cx="742" cy="305" r="8" fill="#444cf7"/><circle cx="795" cy="234" r="8" fill="#444cf7"/><circle cx="848" cy="100" r="8" fill="#444cf7"/><circle cx="901" cy="132" r="8" fill="#444cf7"/><circle cx="954" cy="55" r="8" fill="#444cf7"/><circle cx="991" cy="10" r="8" fill="#444cf7"/></g></svg>