<svg width="1380" height="64" viewBox="0 0 1380 64" fill="none" xmlns="http://www.w3.org/2000/svg">
<mask id="path-1-inside-1_61_20529" fill="white">
<path d="M0 8C0 3.58172 3.58172 0 8 0H1372C1376.42 0 1380 3.58172 1380 8V56C1380 60.4183 1376.42 64 1372 64H7.99998C3.5817 64 0 60.4183 0 56V8Z"/>
</mask>
<path d="M0 8C0 3.58172 3.58172 0 8 0H1372C1376.42 0 1380 3.58172 1380 8V56C1380 60.4183 1376.42 64 1372 64H7.99998C3.5817 64 0 60.4183 0 56V8Z" fill="white" fill-opacity="0.03"/>
<path d="M8 0V2H1372V0V-2H8V0ZM1380 8H1378V56H1380H1382V8H1380ZM1372 64V62H7.99998V64V66H1372V64ZM0 56H2V8H0H-2V56H0ZM7.99998 64V62C4.68628 62 2 59.3137 2 56H0H-2C-2 61.5228 2.47713 66 7.99998 66V64ZM1380 56H1378C1378 59.3137 1375.31 62 1372 62V64V66C1377.52 66 1382 61.5228 1382 56H1380ZM1372 0V2C1375.31 2 1378 4.68629 1378 8H1380H1382C1382 2.47716 1377.52 -2 1372 -2V0ZM8 0V-2C2.47715 -2 -2 2.47715 -2 8H0H2C2 4.68629 4.68629 2 8 2V0Z" fill="white" fill-opacity="0.05" mask="url(#path-1-inside-1_61_20529)"/>
<g clip-path="url(#clip0_61_20529)">
<g opacity="0.5" clip-path="url(#clip1_61_20529)">
<path d="M31.5005 39.5L27.8838 35.8833" stroke="#FAFAFA" stroke-width="1.66667" stroke-linecap="round" stroke-linejoin="round"/>
<path d="M23.1667 37.8333C26.8486 37.8333 29.8333 34.8486 29.8333 31.1667C29.8333 27.4848 26.8486 24.5 23.1667 24.5C19.4848 24.5 16.5 27.4848 16.5 31.1667C16.5 34.8486 19.4848 37.8333 23.1667 37.8333Z" stroke="#FAFAFA" stroke-width="1.66667" stroke-linecap="round" stroke-linejoin="round"/>
</g>
<g clip-path="url(#clip2_61_20529)">
<path d="M67.4 40.225C66.56 40.225 65.84 40.11 65.24 39.88C64.64 39.65 64.145 39.345 63.755 38.965C63.365 38.575 63.07 38.135 62.87 37.645C62.67 37.155 62.555 36.655 62.525 36.145H64.505C64.535 36.545 64.66 36.935 64.88 37.315C65.1 37.695 65.425 38.005 65.855 38.245C66.285 38.485 66.825 38.605 67.475 38.605C68.175 38.605 68.71 38.455 69.08 38.155C69.46 37.855 69.65 37.45 69.65 36.94C69.65 36.45 69.475 36.065 69.125 35.785C68.785 35.495 68.345 35.26 67.805 35.08L66.395 34.615C65.835 34.425 65.3 34.2 64.79 33.94C64.29 33.68 63.875 33.34 63.545 32.92C63.225 32.49 63.065 31.935 63.065 31.255C63.065 30.575 63.23 30 63.56 29.53C63.9 29.06 64.37 28.7 64.97 28.45C65.57 28.2 66.26 28.075 67.04 28.075C68.02 28.075 68.805 28.245 69.395 28.585C69.995 28.925 70.435 29.36 70.715 29.89C71.005 30.42 71.175 30.99 71.225 31.6H69.245C69.215 31.28 69.12 30.975 68.96 30.685C68.81 30.385 68.575 30.145 68.255 29.965C67.935 29.775 67.505 29.68 66.965 29.68C66.365 29.68 65.9 29.81 65.57 30.07C65.25 30.33 65.09 30.67 65.09 31.09C65.09 31.56 65.27 31.93 65.63 32.2C65.99 32.46 66.44 32.68 66.98 32.86L68.405 33.325C68.965 33.505 69.49 33.73 69.98 34C70.48 34.26 70.885 34.61 71.195 35.05C71.515 35.48 71.675 36.055 71.675 36.775C71.675 37.855 71.295 38.7 70.535 39.31C69.775 39.92 68.73 40.225 67.4 40.225ZM77.1535 40.225C75.7835 40.225 74.7385 39.8 74.0185 38.95C73.2985 38.09 72.9385 36.935 72.9385 35.485C72.9385 34.525 73.0985 33.695 73.4185 32.995C73.7385 32.295 74.2085 31.75 74.8285 31.36C75.4585 30.97 76.2235 30.775 77.1235 30.775C78.4135 30.775 79.3985 31.18 80.0785 31.99C80.7585 32.79 81.0985 33.965 81.0985 35.515V35.995H74.9185C74.9685 36.815 75.1785 37.475 75.5485 37.975C75.9285 38.475 76.4635 38.725 77.1535 38.725C77.6735 38.725 78.0885 38.575 78.3985 38.275C78.7185 37.975 78.9385 37.59 79.0585 37.12H80.9935C80.8835 37.7 80.6735 38.225 80.3635 38.695C80.0635 39.155 79.6485 39.525 79.1185 39.805C78.5885 40.085 77.9335 40.225 77.1535 40.225ZM74.9335 34.645H79.1185C79.0785 33.875 78.8835 33.28 78.5335 32.86C78.1935 32.44 77.7185 32.23 77.1085 32.23C76.4785 32.23 75.9785 32.435 75.6085 32.845C75.2385 33.255 75.0135 33.855 74.9335 34.645ZM85.8823 40.195C85.0823 40.195 84.4123 40 83.8723 39.61C83.3323 39.21 82.9223 38.655 82.6423 37.945C82.3723 37.235 82.2373 36.415 82.2373 35.485C82.2373 34.545 82.3723 33.725 82.6423 33.025C82.9223 32.325 83.3323 31.78 83.8723 31.39C84.4223 31 85.0973 30.805 85.8973 30.805C86.5473 30.805 87.0723 30.935 87.4723 31.195C87.8823 31.455 88.1823 31.78 88.3723 32.17H88.7323V31H90.5773V40H88.7323V38.83H88.3723C88.1823 39.2 87.8823 39.52 87.4723 39.79C87.0723 40.06 86.5423 40.195 85.8823 40.195ZM86.3473 38.665C87.0273 38.665 87.5673 38.38 87.9673 37.81C88.3673 37.23 88.5673 36.46 88.5673 35.5C88.5673 34.54 88.3673 33.775 87.9673 33.205C87.5673 32.625 87.0273 32.335 86.3473 32.335C85.7073 32.335 85.2123 32.605 84.8623 33.145C84.5123 33.685 84.3373 34.47 84.3373 35.5C84.3373 36.53 84.5123 37.315 84.8623 37.855C85.2123 38.395 85.7073 38.665 86.3473 38.665ZM92.9773 40V31H94.8073V32.59H95.1673C95.2273 32.32 95.3373 32.055 95.4973 31.795C95.6573 31.535 95.9023 31.325 96.2323 31.165C96.5723 30.995 97.0323 30.91 97.6123 30.91H98.0023V32.77H97.4473C96.5773 32.77 95.9523 32.995 95.5723 33.445C95.1923 33.895 95.0023 34.58 95.0023 35.5V40H92.9773ZM102.783 40.225C101.433 40.225 100.408 39.8 99.7079 38.95C99.0179 38.09 98.6729 36.94 98.6729 35.5C98.6729 34.01 99.0329 32.85 99.7529 32.02C100.483 31.19 101.498 30.775 102.798 30.775C103.918 30.775 104.808 31.08 105.468 31.69C106.128 32.3 106.528 33.145 106.668 34.225H104.673C104.593 33.615 104.393 33.14 104.073 32.8C103.763 32.46 103.348 32.29 102.828 32.29C102.138 32.29 101.623 32.575 101.283 33.145C100.943 33.705 100.773 34.49 100.773 35.5C100.773 36.51 100.943 37.3 101.283 37.87C101.623 38.43 102.133 38.71 102.813 38.71C103.343 38.71 103.763 38.54 104.073 38.2C104.393 37.86 104.593 37.385 104.673 36.775H106.668C106.518 37.855 106.108 38.7 105.438 39.31C104.778 39.92 103.893 40.225 102.783 40.225ZM108.358 40V28H110.383V32.125H110.743C110.953 31.715 111.243 31.39 111.613 31.15C111.983 30.9 112.468 30.775 113.068 30.775C114.088 30.775 114.838 31.095 115.318 31.735C115.808 32.365 116.053 33.205 116.053 34.255V40H114.028V34.63C114.028 33.93 113.903 33.395 113.653 33.025C113.403 32.645 113.008 32.455 112.468 32.455C111.808 32.455 111.293 32.715 110.923 33.235C110.563 33.745 110.383 34.38 110.383 35.14V40H108.358ZM122.469 40V32.485H121.179V31H122.469V30.445C122.469 29.955 122.554 29.525 122.724 29.155C122.894 28.785 123.174 28.495 123.564 28.285C123.964 28.075 124.509 27.97 125.199 27.97C125.449 27.97 125.684 27.985 125.904 28.015V29.485C125.784 29.455 125.624 29.44 125.424 29.44C125.034 29.44 124.769 29.53 124.629 29.71C124.499 29.89 124.434 30.15 124.434 30.49V31H125.904V32.485H124.434V40H122.469ZM131.184 40.225C129.764 40.225 128.699 39.8 127.989 38.95C127.289 38.09 126.939 36.94 126.939 35.5C126.939 34.06 127.289 32.915 127.989 32.065C128.699 31.205 129.764 30.775 131.184 30.775C132.624 30.775 133.694 31.205 134.394 32.065C135.094 32.915 135.444 34.06 135.444 35.5C135.444 36.94 135.094 38.09 134.394 38.95C133.694 39.8 132.624 40.225 131.184 40.225ZM131.199 38.755C131.939 38.755 132.479 38.475 132.819 37.915C133.169 37.345 133.344 36.54 133.344 35.5C133.344 34.46 133.169 33.66 132.819 33.1C132.479 32.53 131.939 32.245 131.199 32.245C130.449 32.245 129.899 32.53 129.549 33.1C129.209 33.66 129.039 34.46 129.039 35.5C129.039 36.54 129.209 37.345 129.549 37.915C129.899 38.475 130.449 38.755 131.199 38.755ZM137.221 40V31H139.051V32.59H139.411C139.471 32.32 139.581 32.055 139.741 31.795C139.901 31.535 140.146 31.325 140.476 31.165C140.816 30.995 141.276 30.91 141.856 30.91H142.246V32.77H141.691C140.821 32.77 140.196 32.995 139.816 33.445C139.436 33.895 139.246 34.58 139.246 35.5V40H137.221ZM152.23 40.195C151.55 40.195 151.005 40.06 150.595 39.79C150.195 39.52 149.9 39.2 149.71 38.83H149.35V40H147.505V28H149.53V32.035H149.89C150.1 31.655 150.395 31.355 150.775 31.135C151.155 30.915 151.645 30.805 152.245 30.805C153.025 30.805 153.68 31 154.21 31.39C154.75 31.78 155.155 32.325 155.425 33.025C155.705 33.725 155.845 34.545 155.845 35.485C155.845 36.415 155.705 37.235 155.425 37.945C155.155 38.655 154.75 39.21 154.21 39.61C153.68 40 153.02 40.195 152.23 40.195ZM151.735 38.665C152.375 38.665 152.87 38.395 153.22 37.855C153.57 37.315 153.745 36.53 153.745 35.5C153.745 34.47 153.57 33.685 153.22 33.145C152.87 32.605 152.375 32.335 151.735 32.335C151.055 32.335 150.515 32.625 150.115 33.205C149.715 33.775 149.515 34.54 149.515 35.5C149.515 36.46 149.715 37.23 150.115 37.81C150.515 38.38 151.055 38.665 151.735 38.665ZM161.26 40.225C159.84 40.225 158.775 39.8 158.065 38.95C157.365 38.09 157.015 36.94 157.015 35.5C157.015 34.06 157.365 32.915 158.065 32.065C158.775 31.205 159.84 30.775 161.26 30.775C162.7 30.775 163.77 31.205 164.47 32.065C165.17 32.915 165.52 34.06 165.52 35.5C165.52 36.94 165.17 38.09 164.47 38.95C163.77 39.8 162.7 40.225 161.26 40.225ZM161.275 38.755C162.015 38.755 162.555 38.475 162.895 37.915C163.245 37.345 163.42 36.54 163.42 35.5C163.42 34.46 163.245 33.66 162.895 33.1C162.555 32.53 162.015 32.245 161.275 32.245C160.525 32.245 159.975 32.53 159.625 33.1C159.285 33.66 159.115 34.46 159.115 35.5C159.115 36.54 159.285 37.345 159.625 37.915C159.975 38.475 160.525 38.755 161.275 38.755ZM168.528 40C168.298 39.73 168.113 39.405 167.973 39.025C167.843 38.645 167.778 38.075 167.778 37.315V32.485H166.548V31H167.808V28.75H169.788V31H171.273V32.485H169.803V37.06C169.803 37.86 169.888 38.47 170.058 38.89C170.238 39.3 170.453 39.64 170.703 39.91V40H168.528ZM176.073 40.225C175.153 40.225 174.408 40.075 173.838 39.775C173.278 39.465 172.858 39.07 172.578 38.59C172.308 38.11 172.158 37.62 172.128 37.12H174.078C174.118 37.4 174.218 37.665 174.378 37.915C174.548 38.165 174.778 38.365 175.068 38.515C175.358 38.665 175.723 38.74 176.163 38.74C176.663 38.74 177.038 38.645 177.288 38.455C177.538 38.255 177.663 37.995 177.663 37.675C177.663 37.405 177.558 37.175 177.348 36.985C177.138 36.785 176.808 36.605 176.358 36.445L175.278 36.085C174.778 35.905 174.318 35.71 173.898 35.5C173.488 35.28 173.158 35.005 172.908 34.675C172.668 34.335 172.548 33.905 172.548 33.385C172.548 32.605 172.838 31.975 173.418 31.495C173.998 31.015 174.808 30.775 175.848 30.775C176.598 30.775 177.213 30.9 177.693 31.15C178.183 31.39 178.553 31.72 178.803 32.14C179.053 32.55 179.198 33.01 179.238 33.52H177.363C177.313 33.15 177.158 32.84 176.898 32.59C176.648 32.34 176.273 32.215 175.773 32.215C175.343 32.215 175.013 32.305 174.783 32.485C174.563 32.665 174.453 32.905 174.453 33.205C174.453 33.505 174.563 33.755 174.783 33.955C175.013 34.145 175.358 34.32 175.818 34.48L176.883 34.825C177.383 34.995 177.838 35.19 178.248 35.41C178.658 35.62 178.978 35.895 179.208 36.235C179.448 36.565 179.568 36.99 179.568 37.51C179.568 38.32 179.268 38.975 178.668 39.475C178.078 39.975 177.213 40.225 176.073 40.225ZM182.095 40.09C181.685 40.09 181.37 39.98 181.15 39.76C180.93 39.53 180.82 39.225 180.82 38.845C180.82 38.455 180.93 38.15 181.15 37.93C181.37 37.71 181.685 37.6 182.095 37.6C182.505 37.6 182.815 37.71 183.025 37.93C183.235 38.15 183.34 38.455 183.34 38.845C183.34 39.225 183.235 39.53 183.025 39.76C182.815 39.98 182.505 40.09 182.095 40.09ZM186.138 40.09C185.728 40.09 185.413 39.98 185.193 39.76C184.973 39.53 184.863 39.225 184.863 38.845C184.863 38.455 184.973 38.15 185.193 37.93C185.413 37.71 185.728 37.6 186.138 37.6C186.548 37.6 186.858 37.71 187.068 37.93C187.278 38.15 187.383 38.455 187.383 38.845C187.383 39.225 187.278 39.53 187.068 39.76C186.858 39.98 186.548 40.09 186.138 40.09ZM190.181 40.09C189.771 40.09 189.456 39.98 189.236 39.76C189.016 39.53 188.906 39.225 188.906 38.845C188.906 38.455 189.016 38.15 189.236 37.93C189.456 37.71 189.771 37.6 190.181 37.6C190.591 37.6 190.901 37.71 191.111 37.93C191.321 38.15 191.426 38.455 191.426 38.845C191.426 39.225 191.321 39.53 191.111 39.76C190.901 39.98 190.591 40.09 190.181 40.09Z" fill="#9F9FA9"/>
</g>
<path d="M1169.13 37.25V26.85H1173.15C1174.49 26.85 1175.46 27.13 1176.06 27.69C1176.67 28.2411 1176.98 28.9833 1176.98 29.9167C1176.98 30.85 1176.67 31.5967 1176.06 32.1567C1175.46 32.7167 1174.49 32.9967 1173.15 32.9967H1170.98V37.25H1169.13ZM1170.98 31.5433H1172.95C1173.67 31.5433 1174.21 31.4189 1174.57 31.17C1174.92 30.9211 1175.1 30.5078 1175.1 29.93C1175.1 29.3522 1174.92 28.9344 1174.57 28.6767C1174.21 28.4189 1173.67 28.29 1172.95 28.29H1170.98V31.5433ZM1178.49 37.25V29.25H1180.12V30.6633H1180.44C1180.49 30.4233 1180.59 30.1878 1180.73 29.9567C1180.87 29.7256 1181.09 29.5389 1181.39 29.3967C1181.69 29.2456 1182.1 29.17 1182.61 29.17H1182.96V30.8233H1182.47C1181.69 30.8233 1181.14 31.0233 1180.8 31.4233C1180.46 31.8233 1180.29 32.4322 1180.29 33.25V37.25H1178.49ZM1187.3 37.45C1186.08 37.45 1185.16 37.0722 1184.52 36.3167C1183.88 35.5522 1183.56 34.5256 1183.56 33.2367C1183.56 32.3833 1183.7 31.6456 1183.98 31.0233C1184.27 30.4011 1184.68 29.9167 1185.24 29.57C1185.8 29.2233 1186.48 29.05 1187.28 29.05C1188.42 29.05 1189.3 29.41 1189.9 30.13C1190.51 30.8411 1190.81 31.8856 1190.81 33.2633V33.69H1185.32C1185.36 34.4189 1185.55 35.0056 1185.88 35.45C1186.21 35.8944 1186.69 36.1167 1187.3 36.1167C1187.76 36.1167 1188.13 35.9833 1188.41 35.7167C1188.69 35.45 1188.89 35.1078 1189 34.69H1190.72C1190.62 35.2056 1190.43 35.6722 1190.16 36.09C1189.89 36.4989 1189.52 36.8278 1189.05 37.0767C1188.58 37.3256 1188 37.45 1187.3 37.45ZM1185.33 32.49H1189.05C1189.01 31.8056 1188.84 31.2767 1188.53 30.9033C1188.23 30.53 1187.8 30.3433 1187.26 30.3433C1186.7 30.3433 1186.26 30.5256 1185.93 30.89C1185.6 31.2544 1185.4 31.7878 1185.33 32.49ZM1195.17 37.45C1194.35 37.45 1193.69 37.3167 1193.18 37.05C1192.68 36.7744 1192.31 36.4233 1192.06 35.9967C1191.82 35.57 1191.69 35.1344 1191.66 34.69H1193.39C1193.43 34.9389 1193.52 35.1744 1193.66 35.3967C1193.81 35.6189 1194.02 35.7967 1194.27 35.93C1194.53 36.0633 1194.86 36.13 1195.25 36.13C1195.69 36.13 1196.03 36.0456 1196.25 35.8767C1196.47 35.6989 1196.58 35.4678 1196.58 35.1833C1196.58 34.9433 1196.49 34.7389 1196.3 34.57C1196.11 34.3922 1195.82 34.2322 1195.42 34.09L1194.46 33.77C1194.02 33.61 1193.61 33.4367 1193.23 33.25C1192.87 33.0544 1192.58 32.81 1192.35 32.5167C1192.14 32.2144 1192.03 31.8322 1192.03 31.37C1192.03 30.6767 1192.29 30.1167 1192.81 29.69C1193.32 29.2633 1194.04 29.05 1194.97 29.05C1195.63 29.05 1196.18 29.1611 1196.61 29.3833C1197.04 29.5967 1197.37 29.89 1197.59 30.2633C1197.82 30.6278 1197.95 31.0367 1197.98 31.49H1196.31C1196.27 31.1611 1196.13 30.8856 1195.9 30.6633C1195.68 30.4411 1195.35 30.33 1194.9 30.33C1194.52 30.33 1194.23 30.41 1194.02 30.57C1193.83 30.73 1193.73 30.9433 1193.73 31.21C1193.73 31.4767 1193.83 31.6989 1194.02 31.8767C1194.23 32.0456 1194.53 32.2011 1194.94 32.3433L1195.89 32.65C1196.33 32.8011 1196.74 32.9744 1197.1 33.17C1197.47 33.3567 1197.75 33.6011 1197.95 33.9033C1198.17 34.1967 1198.27 34.5744 1198.27 35.0367C1198.27 35.7567 1198.01 36.3389 1197.47 36.7833C1196.95 37.2278 1196.18 37.45 1195.17 37.45ZM1202.57 37.45C1201.76 37.45 1201.09 37.3167 1200.59 37.05C1200.09 36.7744 1199.72 36.4233 1199.47 35.9967C1199.23 35.57 1199.09 35.1344 1199.07 34.69H1200.8C1200.84 34.9389 1200.92 35.1744 1201.07 35.3967C1201.22 35.6189 1201.42 35.7967 1201.68 35.93C1201.94 36.0633 1202.26 36.13 1202.65 36.13C1203.1 36.13 1203.43 36.0456 1203.65 35.8767C1203.88 35.6989 1203.99 35.4678 1203.99 35.1833C1203.99 34.9433 1203.89 34.7389 1203.71 34.57C1203.52 34.3922 1203.23 34.2322 1202.83 34.09L1201.87 33.77C1201.42 33.61 1201.01 33.4367 1200.64 33.25C1200.28 33.0544 1199.98 32.81 1199.76 32.5167C1199.55 32.2144 1199.44 31.8322 1199.44 31.37C1199.44 30.6767 1199.7 30.1167 1200.21 29.69C1200.73 29.2633 1201.45 29.05 1202.37 29.05C1203.04 29.05 1203.59 29.1611 1204.01 29.3833C1204.45 29.5967 1204.78 29.89 1205 30.2633C1205.22 30.6278 1205.35 31.0367 1205.39 31.49H1203.72C1203.68 31.1611 1203.54 30.8856 1203.31 30.6633C1203.08 30.4411 1202.75 30.33 1202.31 30.33C1201.92 30.33 1201.63 30.41 1201.43 30.57C1201.23 30.73 1201.13 30.9433 1201.13 31.21C1201.13 31.4767 1201.23 31.6989 1201.43 31.8767C1201.63 32.0456 1201.94 32.2011 1202.35 32.3433L1203.29 32.65C1203.74 32.8011 1204.14 32.9744 1204.51 33.17C1204.87 33.3567 1205.16 33.6011 1205.36 33.9033C1205.57 34.1967 1205.68 34.5744 1205.68 35.0367C1205.68 35.7567 1205.41 36.3389 1204.88 36.7833C1204.36 37.2278 1203.59 37.45 1202.57 37.45Z" fill="#FAFAFA"/>
<mask id="path-9-inside-2_61_20529" fill="white">
<path d="M1209.3 28.75C1209.3 26.5409 1211.09 24.75 1213.3 24.75H1247.3C1249.51 24.75 1251.3 26.5409 1251.3 28.75V40.75C1251.3 42.9591 1249.51 44.75 1247.3 44.75H1213.3C1211.09 44.75 1209.3 42.9591 1209.3 40.75V28.75Z"/>
</mask>
<path d="M1209.3 28.75C1209.3 26.5409 1211.09 24.75 1213.3 24.75H1247.3C1249.51 24.75 1251.3 26.5409 1251.3 28.75V40.75C1251.3 42.9591 1249.51 44.75 1247.3 44.75H1213.3C1211.09 44.75 1209.3 42.9591 1209.3 40.75V28.75Z" fill="white" fill-opacity="0.08"/>
<path d="M1213.3 24.75V25.75H1247.3V24.75V23.75H1213.3V24.75ZM1251.3 28.75H1250.3V40.75H1251.3H1252.3V28.75H1251.3ZM1247.3 44.75V43.75H1213.3V44.75V45.75H1247.3V44.75ZM1209.3 40.75H1210.3V28.75H1209.3H1208.3V40.75H1209.3ZM1213.3 44.75V43.75C1211.64 43.75 1210.3 42.4069 1210.3 40.75H1209.3H1208.3C1208.3 43.5114 1210.54 45.75 1213.3 45.75V44.75ZM1251.3 40.75H1250.3C1250.3 42.4069 1248.96 43.75 1247.3 43.75V44.75V45.75C1250.06 45.75 1252.3 43.5114 1252.3 40.75H1251.3ZM1247.3 24.75V25.75C1248.96 25.75 1250.3 27.0931 1250.3 28.75H1251.3H1252.3C1252.3 25.9886 1250.06 23.75 1247.3 23.75V24.75ZM1213.3 24.75V23.75C1210.54 23.75 1208.3 25.9886 1208.3 28.75H1209.3H1210.3C1210.3 27.0931 1211.64 25.75 1213.3 25.75V24.75Z" fill="white" fill-opacity="0.1" mask="url(#path-9-inside-2_61_20529)"/>
<path d="M1220.91 36.75H1217.28V30.3682H1220.91V31.1006H1218.15V33.0781H1220.8V33.8105H1218.15V36.0078H1220.91V36.75ZM1226.72 36.75H1225.59L1223.73 32.7705L1223.19 31.4912V34.709V36.75H1222.38V30.3682H1223.5L1225.27 34.1377L1225.91 35.5977V32.1797V30.3682H1226.72V36.75ZM1232.37 31.1104H1230.48V36.75H1229.61V31.1104H1227.72V30.3682H1232.37V31.1104ZM1237.4 36.75H1233.78V30.3682H1237.4V31.1006H1234.64V33.0781H1237.3V33.8105H1234.64V36.0078H1237.4V36.75ZM1243.42 36.75H1242.44L1241.49 34.709C1241.42 34.5527 1241.35 34.4242 1241.27 34.3232C1241.2 34.2191 1241.11 34.1377 1241.03 34.0791C1240.94 34.0173 1240.85 33.9733 1240.74 33.9473C1240.64 33.9212 1240.53 33.9082 1240.4 33.9082H1239.99V36.75H1239.12V30.3682H1240.83C1241.2 30.3682 1241.52 30.4089 1241.79 30.4902C1242.06 30.5716 1242.27 30.6855 1242.44 30.832C1242.61 30.9785 1242.74 31.1559 1242.82 31.3643C1242.9 31.5693 1242.94 31.7972 1242.94 32.0479C1242.94 32.2464 1242.91 32.4352 1242.85 32.6143C1242.79 32.79 1242.71 32.9512 1242.59 33.0977C1242.47 33.2409 1242.33 33.3662 1242.16 33.4736C1241.99 33.5778 1241.79 33.6559 1241.57 33.708C1241.75 33.7699 1241.9 33.8789 1242.03 34.0352C1242.15 34.1882 1242.28 34.3932 1242.41 34.6504L1243.42 36.75ZM1242.03 32.1211C1242.03 31.7793 1241.92 31.5238 1241.71 31.3545C1241.5 31.1852 1241.2 31.1006 1240.81 31.1006H1239.99V33.21H1240.69C1240.9 33.21 1241.08 33.1872 1241.25 33.1416C1241.41 33.0928 1241.55 33.0228 1241.67 32.9316C1241.78 32.8372 1241.87 32.7233 1241.93 32.5898C1242 32.4531 1242.03 32.2969 1242.03 32.1211Z" fill="#9F9FA9"/>
<path d="M1256.16 37.25C1255.96 37.01 1255.79 36.7211 1255.67 36.3833C1255.55 36.0456 1255.5 35.5389 1255.5 34.8633V30.57H1254.4V29.25H1255.52V27.25H1257.28V29.25H1258.6V30.57H1257.3V34.6367C1257.3 35.3478 1257.37 35.89 1257.52 36.2633C1257.68 36.6278 1257.87 36.93 1258.1 37.17V37.25H1256.16ZM1263.3 37.45C1262.03 37.45 1261.09 37.0722 1260.46 36.3167C1259.83 35.5522 1259.52 34.53 1259.52 33.25C1259.52 31.97 1259.83 30.9522 1260.46 30.1967C1261.09 29.4322 1262.03 29.05 1263.3 29.05C1264.58 29.05 1265.53 29.4322 1266.15 30.1967C1266.77 30.9522 1267.08 31.97 1267.08 33.25C1267.08 34.53 1266.77 35.5522 1266.15 36.3167C1265.53 37.0722 1264.58 37.45 1263.3 37.45ZM1263.31 36.1433C1263.97 36.1433 1264.45 35.8944 1264.75 35.3967C1265.06 34.89 1265.22 34.1744 1265.22 33.25C1265.22 32.3256 1265.06 31.6144 1264.75 31.1167C1264.45 30.61 1263.97 30.3567 1263.31 30.3567C1262.64 30.3567 1262.15 30.61 1261.84 31.1167C1261.54 31.6144 1261.39 32.3256 1261.39 33.25C1261.39 34.1744 1261.54 34.89 1261.84 35.3967C1262.15 35.8944 1262.64 36.1433 1263.31 36.1433ZM1274.67 37.45C1273.85 37.45 1273.19 37.3167 1272.68 37.05C1272.18 36.7744 1271.81 36.4233 1271.56 35.9967C1271.32 35.57 1271.19 35.1344 1271.16 34.69H1272.89C1272.93 34.9389 1273.02 35.1744 1273.16 35.3967C1273.31 35.6189 1273.52 35.7967 1273.77 35.93C1274.03 36.0633 1274.36 36.13 1274.75 36.13C1275.19 36.13 1275.52 36.0456 1275.75 35.8767C1275.97 35.6989 1276.08 35.4678 1276.08 35.1833C1276.08 34.9433 1275.99 34.7389 1275.8 34.57C1275.61 34.3922 1275.32 34.2322 1274.92 34.09L1273.96 33.77C1273.52 33.61 1273.11 33.4367 1272.73 33.25C1272.37 33.0544 1272.08 32.81 1271.85 32.5167C1271.64 32.2144 1271.53 31.8322 1271.53 31.37C1271.53 30.6767 1271.79 30.1167 1272.31 29.69C1272.82 29.2633 1273.54 29.05 1274.47 29.05C1275.13 29.05 1275.68 29.1611 1276.11 29.3833C1276.54 29.5967 1276.87 29.89 1277.09 30.2633C1277.32 30.6278 1277.44 31.0367 1277.48 31.49H1275.81C1275.77 31.1611 1275.63 30.8856 1275.4 30.6633C1275.18 30.4411 1274.84 30.33 1274.4 30.33C1274.02 30.33 1273.72 30.41 1273.52 30.57C1273.32 30.73 1273.23 30.9433 1273.23 31.21C1273.23 31.4767 1273.32 31.6989 1273.52 31.8767C1273.72 32.0456 1274.03 32.2011 1274.44 32.3433L1275.39 32.65C1275.83 32.8011 1276.24 32.9744 1276.6 33.17C1276.96 33.3567 1277.25 33.6011 1277.45 33.9033C1277.67 34.1967 1277.77 34.5744 1277.77 35.0367C1277.77 35.7567 1277.51 36.3389 1276.97 36.7833C1276.45 37.2278 1275.68 37.45 1274.67 37.45ZM1282.47 37.45C1281.25 37.45 1280.33 37.0722 1279.69 36.3167C1279.05 35.5522 1278.73 34.5256 1278.73 33.2367C1278.73 32.3833 1278.87 31.6456 1279.15 31.0233C1279.44 30.4011 1279.85 29.9167 1280.41 29.57C1280.97 29.2233 1281.65 29.05 1282.45 29.05C1283.59 29.05 1284.47 29.41 1285.07 30.13C1285.68 30.8411 1285.98 31.8856 1285.98 33.2633V33.69H1280.49C1280.53 34.4189 1280.72 35.0056 1281.05 35.45C1281.38 35.8944 1281.86 36.1167 1282.47 36.1167C1282.93 36.1167 1283.3 35.9833 1283.58 35.7167C1283.86 35.45 1284.06 35.1078 1284.17 34.69H1285.89C1285.79 35.2056 1285.6 35.6722 1285.33 36.09C1285.06 36.4989 1284.69 36.8278 1284.22 37.0767C1283.75 37.3256 1283.17 37.45 1282.47 37.45ZM1280.5 32.49H1284.22C1284.18 31.8056 1284.01 31.2767 1283.7 30.9033C1283.4 30.53 1282.97 30.3433 1282.43 30.3433C1281.87 30.3433 1281.43 30.5256 1281.1 30.89C1280.77 31.2544 1280.57 31.7878 1280.5 32.49ZM1290.23 37.4233C1289.52 37.4233 1288.93 37.25 1288.45 36.9033C1287.97 36.5478 1287.6 36.0544 1287.35 35.4233C1287.11 34.7922 1286.99 34.0633 1286.99 33.2367C1286.99 32.4011 1287.11 31.6722 1287.35 31.05C1287.6 30.4278 1287.97 29.9433 1288.45 29.5967C1288.93 29.25 1289.53 29.0767 1290.25 29.0767C1290.82 29.0767 1291.29 29.1922 1291.65 29.4233C1292.01 29.6544 1292.28 29.9433 1292.45 30.29H1292.77V29.25H1294.41V37.25H1292.77V36.21H1292.45C1292.28 36.5389 1292.01 36.8233 1291.65 37.0633C1291.29 37.3033 1290.82 37.4233 1290.23 37.4233ZM1290.65 36.0633C1291.25 36.0633 1291.73 35.81 1292.09 35.3033C1292.44 34.7878 1292.62 34.1033 1292.62 33.25C1292.62 32.3967 1292.44 31.7167 1292.09 31.21C1291.73 30.6944 1291.25 30.4367 1290.65 30.4367C1290.08 30.4367 1289.64 30.6767 1289.33 31.1567C1289.01 31.6367 1288.86 32.3344 1288.86 33.25C1288.86 34.1656 1289.01 34.8633 1289.33 35.3433C1289.64 35.8233 1290.08 36.0633 1290.65 36.0633ZM1296.54 37.25V29.25H1298.17V30.6633H1298.49C1298.54 30.4233 1298.64 30.1878 1298.78 29.9567C1298.92 29.7256 1299.14 29.5389 1299.43 29.3967C1299.73 29.2456 1300.14 29.17 1300.66 29.17H1301.01V30.8233H1300.51C1299.74 30.8233 1299.18 31.0233 1298.85 31.4233C1298.51 31.8233 1298.34 32.4322 1298.34 33.25V37.25H1296.54ZM1305.25 37.45C1304.05 37.45 1303.14 37.0722 1302.52 36.3167C1301.91 35.5522 1301.6 34.53 1301.6 33.25C1301.6 31.9256 1301.92 30.8944 1302.56 30.1567C1303.21 29.4189 1304.11 29.05 1305.27 29.05C1306.26 29.05 1307.05 29.3211 1307.64 29.8633C1308.23 30.4056 1308.58 31.1567 1308.71 32.1167H1306.93C1306.86 31.5744 1306.69 31.1522 1306.4 30.85C1306.13 30.5478 1305.76 30.3967 1305.29 30.3967C1304.68 30.3967 1304.22 30.65 1303.92 31.1567C1303.62 31.6544 1303.47 32.3522 1303.47 33.25C1303.47 34.1478 1303.62 34.85 1303.92 35.3567C1304.22 35.8544 1304.68 36.1033 1305.28 36.1033C1305.75 36.1033 1306.13 35.9522 1306.4 35.65C1306.69 35.3478 1306.86 34.9256 1306.93 34.3833H1308.71C1308.57 35.3433 1308.21 36.0944 1307.61 36.6367C1307.03 37.1789 1306.24 37.45 1305.25 37.45ZM1310.21 37.25V26.5833H1312.01V30.25H1312.33C1312.52 29.8856 1312.77 29.5967 1313.1 29.3833C1313.43 29.1611 1313.86 29.05 1314.4 29.05C1315.3 29.05 1315.97 29.3344 1316.4 29.9033C1316.83 30.4633 1317.05 31.21 1317.05 32.1433V37.25H1315.25V32.4767C1315.25 31.8544 1315.14 31.3789 1314.92 31.05C1314.69 30.7122 1314.34 30.5433 1313.86 30.5433C1313.28 30.5433 1312.82 30.7744 1312.49 31.2367C1312.17 31.69 1312.01 32.2544 1312.01 32.93V37.25H1310.21Z" fill="#FAFAFA"/>
<path d="M1346 36.0002L1345.52 33.8335" stroke="#FAFAFA" stroke-width="1.33333" stroke-linecap="round" stroke-linejoin="round"/>
<path d="M1337.33 29.3335C1337.83 30.7007 1338.74 31.8814 1339.93 32.7157C1341.12 33.55 1342.54 33.9974 1344 33.9974C1345.46 33.9974 1346.88 33.55 1348.07 32.7157C1349.26 31.8814 1350.17 30.7007 1350.67 29.3335" stroke="#FAFAFA" stroke-width="1.33333" stroke-linecap="round" stroke-linejoin="round"/>
<path d="M1349.33 34L1348.18 32.6333" stroke="#FAFAFA" stroke-width="1.33333" stroke-linecap="round" stroke-linejoin="round"/>
<path d="M1338.67 34L1339.82 32.6333" stroke="#FAFAFA" stroke-width="1.33333" stroke-linecap="round" stroke-linejoin="round"/>
<path d="M1342 36.0002L1342.48 33.8335" stroke="#FAFAFA" stroke-width="1.33333" stroke-linecap="round" stroke-linejoin="round"/>
</g>
<defs>
<clipPath id="clip0_61_20529">
<rect x="2" y="2" width="1376" height="60" rx="6" fill="white"/>
</clipPath>
<clipPath id="clip1_61_20529">
<rect width="20" height="20" fill="white" transform="translate(14 22)"/>
</clipPath>
<clipPath id="clip2_61_20529">
<rect width="1284.8" height="22" fill="white" transform="translate(62 21)"/>
</clipPath>
</defs>
</svg>
