<svg width="268" height="62" viewBox="0 0 268 62" fill="none" xmlns="http://www.w3.org/2000/svg">
<rect width="268" height="62" rx="6" fill="white" fill-opacity="0.03"/>
<rect x="1" y="1" width="266" height="60" rx="5" stroke="white" stroke-opacity="0.05" stroke-width="2"/>
<path d="M23.0003 21.5L22.2783 18.25" stroke="#FAFAFA" stroke-width="2" stroke-linecap="round" stroke-linejoin="round"/>
<path d="M10 11.5C10.7484 13.5508 12.1091 15.3219 13.8979 16.5733C15.6867 17.8247 17.8169 18.4959 20 18.4959C22.1831 18.4959 24.3133 17.8247 26.1021 16.5733C27.8909 15.3219 29.2516 13.5508 30 11.5" stroke="#FAFAFA" stroke-width="2" stroke-linecap="round" stroke-linejoin="round"/>
<path d="M28.0004 18.5002L26.2744 16.4502" stroke="#FAFAFA" stroke-width="2" stroke-linecap="round" stroke-linejoin="round"/>
<path d="M12 18.5002L13.726 16.4502" stroke="#FAFAFA" stroke-width="2" stroke-linecap="round" stroke-linejoin="round"/>
<path d="M17 21.5L17.722 18.25" stroke="#FAFAFA" stroke-width="2" stroke-linecap="round" stroke-linejoin="round"/>
<path d="M47.4 23.225C46.56 23.225 45.84 23.11 45.24 22.88C44.64 22.65 44.145 22.345 43.755 21.965C43.365 21.575 43.07 21.135 42.87 20.645C42.67 20.155 42.555 19.655 42.525 19.145H44.505C44.535 19.545 44.66 19.935 44.88 20.315C45.1 20.695 45.425 21.005 45.855 21.245C46.285 21.485 46.825 21.605 47.475 21.605C48.175 21.605 48.71 21.455 49.08 21.155C49.46 20.855 49.65 20.45 49.65 19.94C49.65 19.45 49.475 19.065 49.125 18.785C48.785 18.495 48.345 18.26 47.805 18.08L46.395 17.615C45.835 17.425 45.3 17.2 44.79 16.94C44.29 16.68 43.875 16.34 43.545 15.92C43.225 15.49 43.065 14.935 43.065 14.255C43.065 13.575 43.23 13 43.56 12.53C43.9 12.06 44.37 11.7 44.97 11.45C45.57 11.2 46.26 11.075 47.04 11.075C48.02 11.075 48.805 11.245 49.395 11.585C49.995 11.925 50.435 12.36 50.715 12.89C51.005 13.42 51.175 13.99 51.225 14.6H49.245C49.215 14.28 49.12 13.975 48.96 13.685C48.81 13.385 48.575 13.145 48.255 12.965C47.935 12.775 47.505 12.68 46.965 12.68C46.365 12.68 45.9 12.81 45.57 13.07C45.25 13.33 45.09 13.67 45.09 14.09C45.09 14.56 45.27 14.93 45.63 15.2C45.99 15.46 46.44 15.68 46.98 15.86L48.405 16.325C48.965 16.505 49.49 16.73 49.98 17C50.48 17.26 50.885 17.61 51.195 18.05C51.515 18.48 51.675 19.055 51.675 19.775C51.675 20.855 51.295 21.7 50.535 22.31C49.775 22.92 48.73 23.225 47.4 23.225ZM53.5535 23V11H55.5785V15.125H55.9385C56.1485 14.715 56.4385 14.39 56.8085 14.15C57.1785 13.9 57.6635 13.775 58.2635 13.775C59.2835 13.775 60.0335 14.095 60.5135 14.735C61.0035 15.365 61.2485 16.205 61.2485 17.255V23H59.2235V17.63C59.2235 16.93 59.0985 16.395 58.8485 16.025C58.5985 15.645 58.2035 15.455 57.6635 15.455C57.0035 15.455 56.4885 15.715 56.1185 16.235C55.7585 16.745 55.5785 17.38 55.5785 18.14V23H53.5535ZM67.1503 23.225C65.7303 23.225 64.6653 22.8 63.9553 21.95C63.2553 21.09 62.9053 19.94 62.9053 18.5C62.9053 17.06 63.2553 15.915 63.9553 15.065C64.6653 14.205 65.7303 13.775 67.1503 13.775C68.5903 13.775 69.6603 14.205 70.3603 15.065C71.0603 15.915 71.4103 17.06 71.4103 18.5C71.4103 19.94 71.0603 21.09 70.3603 21.95C69.6603 22.8 68.5903 23.225 67.1503 23.225ZM67.1653 21.755C67.9053 21.755 68.4453 21.475 68.7853 20.915C69.1353 20.345 69.3103 19.54 69.3103 18.5C69.3103 17.46 69.1353 16.66 68.7853 16.1C68.4453 15.53 67.9053 15.245 67.1653 15.245C66.4153 15.245 65.8653 15.53 65.5153 16.1C65.1753 16.66 65.0053 17.46 65.0053 18.5C65.0053 19.54 65.1753 20.345 65.5153 20.915C65.8653 21.475 66.4153 21.755 67.1653 21.755ZM74.1033 23L72.5883 14.045V14H74.4783L75.7233 21.425H76.0533L77.4783 14H80.7183L82.1583 21.425H82.4883L83.7183 14H85.4883V14.045L83.9733 23H80.6883L79.2333 15.53H78.8433L77.4033 23H74.1033ZM93.8745 23.195C93.0845 23.195 92.4195 23 91.8795 22.61C91.3495 22.21 90.9445 21.655 90.6645 20.945C90.3945 20.235 90.2595 19.415 90.2595 18.485C90.2595 17.545 90.3945 16.725 90.6645 16.025C90.9445 15.325 91.3495 14.78 91.8795 14.39C92.4195 14 93.0795 13.805 93.8595 13.805C94.4595 13.805 94.9495 13.915 95.3295 14.135C95.7095 14.355 96.0045 14.655 96.2145 15.035H96.5745V11H98.5995V23H96.7545V21.83H96.3945C96.2045 22.2 95.9045 22.52 95.4945 22.79C95.0945 23.06 94.5545 23.195 93.8745 23.195ZM94.3695 21.665C95.0495 21.665 95.5895 21.38 95.9895 20.81C96.3895 20.23 96.5895 19.46 96.5895 18.5C96.5895 17.54 96.3895 16.775 95.9895 16.205C95.5895 15.625 95.0495 15.335 94.3695 15.335C93.7295 15.335 93.2345 15.605 92.8845 16.145C92.5345 16.685 92.3595 17.47 92.3595 18.5C92.3595 19.53 92.5345 20.315 92.8845 20.855C93.2345 21.395 93.7295 21.665 94.3695 21.665ZM104.614 23.225C103.244 23.225 102.199 22.8 101.479 21.95C100.759 21.09 100.399 19.935 100.399 18.485C100.399 17.525 100.559 16.695 100.879 15.995C101.199 15.295 101.669 14.75 102.289 14.36C102.919 13.97 103.684 13.775 104.584 13.775C105.874 13.775 106.859 14.18 107.539 14.99C108.219 15.79 108.559 16.965 108.559 18.515V18.995H102.379C102.429 19.815 102.639 20.475 103.009 20.975C103.389 21.475 103.924 21.725 104.614 21.725C105.134 21.725 105.549 21.575 105.859 21.275C106.179 20.975 106.399 20.59 106.519 20.12H108.454C108.344 20.7 108.134 21.225 107.824 21.695C107.524 22.155 107.109 22.525 106.579 22.805C106.049 23.085 105.394 23.225 104.614 23.225ZM102.394 17.645H106.579C106.539 16.875 106.344 16.28 105.994 15.86C105.654 15.44 105.179 15.23 104.569 15.23C103.939 15.23 103.439 15.435 103.069 15.845C102.699 16.255 102.474 16.855 102.394 17.645ZM111.003 23C110.753 22.7 110.563 22.355 110.433 21.965C110.313 21.575 110.253 21.025 110.253 20.315V11H112.293V20.075C112.293 20.855 112.378 21.455 112.548 21.875C112.718 22.285 112.938 22.63 113.208 22.91V23H111.003ZM118.361 23.225C116.991 23.225 115.946 22.8 115.226 21.95C114.506 21.09 114.146 19.935 114.146 18.485C114.146 17.525 114.306 16.695 114.626 15.995C114.946 15.295 115.416 14.75 116.036 14.36C116.666 13.97 117.431 13.775 118.331 13.775C119.621 13.775 120.606 14.18 121.286 14.99C121.966 15.79 122.306 16.965 122.306 18.515V18.995H116.126C116.176 19.815 116.386 20.475 116.756 20.975C117.136 21.475 117.671 21.725 118.361 21.725C118.881 21.725 119.296 21.575 119.606 21.275C119.926 20.975 120.146 20.59 120.266 20.12H122.201C122.091 20.7 121.881 21.225 121.571 21.695C121.271 22.155 120.856 22.525 120.326 22.805C119.796 23.085 119.141 23.225 118.361 23.225ZM116.141 17.645H120.326C120.286 16.875 120.091 16.28 119.741 15.86C119.401 15.44 118.926 15.23 118.316 15.23C117.686 15.23 117.186 15.435 116.816 15.845C116.446 16.255 116.221 16.855 116.141 17.645ZM125.289 23C125.059 22.73 124.874 22.405 124.734 22.025C124.604 21.645 124.539 21.075 124.539 20.315V15.485H123.309V14H124.569V11.75H126.549V14H128.034V15.485H126.564V20.06C126.564 20.86 126.649 21.47 126.819 21.89C126.999 22.3 127.214 22.64 127.464 22.91V23H125.289ZM133.284 23.225C131.914 23.225 130.869 22.8 130.149 21.95C129.429 21.09 129.069 19.935 129.069 18.485C129.069 17.525 129.229 16.695 129.549 15.995C129.869 15.295 130.339 14.75 130.959 14.36C131.589 13.97 132.354 13.775 133.254 13.775C134.544 13.775 135.529 14.18 136.209 14.99C136.889 15.79 137.229 16.965 137.229 18.515V18.995H131.049C131.099 19.815 131.309 20.475 131.679 20.975C132.059 21.475 132.594 21.725 133.284 21.725C133.804 21.725 134.219 21.575 134.529 21.275C134.849 20.975 135.069 20.59 135.189 20.12H137.124C137.014 20.7 136.804 21.225 136.494 21.695C136.194 22.155 135.779 22.525 135.249 22.805C134.719 23.085 134.064 23.225 133.284 23.225ZM131.064 17.645H135.249C135.209 16.875 135.014 16.28 134.664 15.86C134.324 15.44 133.849 15.23 133.239 15.23C132.609 15.23 132.109 15.435 131.739 15.845C131.369 16.255 131.144 16.855 131.064 17.645ZM141.968 23.195C141.178 23.195 140.513 23 139.973 22.61C139.443 22.21 139.038 21.655 138.758 20.945C138.488 20.235 138.353 19.415 138.353 18.485C138.353 17.545 138.488 16.725 138.758 16.025C139.038 15.325 139.443 14.78 139.973 14.39C140.513 14 141.173 13.805 141.953 13.805C142.553 13.805 143.043 13.915 143.423 14.135C143.803 14.355 144.098 14.655 144.308 15.035H144.668V11H146.693V23H144.848V21.83H144.488C144.298 22.2 143.998 22.52 143.588 22.79C143.188 23.06 142.648 23.195 141.968 23.195ZM142.463 21.665C143.143 21.665 143.683 21.38 144.083 20.81C144.483 20.23 144.683 19.46 144.683 18.5C144.683 17.54 144.483 16.775 144.083 16.205C143.683 15.625 143.143 15.335 142.463 15.335C141.823 15.335 141.328 15.605 140.978 16.145C140.628 16.685 140.453 17.47 140.453 18.5C140.453 19.53 140.628 20.315 140.978 20.855C141.328 21.395 141.823 21.665 142.463 21.665ZM157.437 23.195C156.757 23.195 156.212 23.06 155.802 22.79C155.402 22.52 155.107 22.2 154.917 21.83H154.557V23H152.712V11H154.737V15.035H155.097C155.307 14.655 155.602 14.355 155.982 14.135C156.362 13.915 156.852 13.805 157.452 13.805C158.232 13.805 158.887 14 159.417 14.39C159.957 14.78 160.362 15.325 160.632 16.025C160.912 16.725 161.052 17.545 161.052 18.485C161.052 19.415 160.912 20.235 160.632 20.945C160.362 21.655 159.957 22.21 159.417 22.61C158.887 23 158.227 23.195 157.437 23.195ZM156.942 21.665C157.582 21.665 158.077 21.395 158.427 20.855C158.777 20.315 158.952 19.53 158.952 18.5C158.952 17.47 158.777 16.685 158.427 16.145C158.077 15.605 157.582 15.335 156.942 15.335C156.262 15.335 155.722 15.625 155.322 16.205C154.922 16.775 154.722 17.54 154.722 18.5C154.722 19.46 154.922 20.23 155.322 20.81C155.722 21.38 156.262 21.665 156.942 21.665ZM166.467 23.225C165.047 23.225 163.982 22.8 163.272 21.95C162.572 21.09 162.222 19.94 162.222 18.5C162.222 17.06 162.572 15.915 163.272 15.065C163.982 14.205 165.047 13.775 166.467 13.775C167.907 13.775 168.977 14.205 169.677 15.065C170.377 15.915 170.727 17.06 170.727 18.5C170.727 19.94 170.377 21.09 169.677 21.95C168.977 22.8 167.907 23.225 166.467 23.225ZM166.482 21.755C167.222 21.755 167.762 21.475 168.102 20.915C168.452 20.345 168.627 19.54 168.627 18.5C168.627 17.46 168.452 16.66 168.102 16.1C167.762 15.53 167.222 15.245 166.482 15.245C165.732 15.245 165.182 15.53 164.832 16.1C164.492 16.66 164.322 17.46 164.322 18.5C164.322 19.54 164.492 20.345 164.832 20.915C165.182 21.475 165.732 21.755 166.482 21.755ZM173.735 23C173.505 22.73 173.32 22.405 173.18 22.025C173.05 21.645 172.985 21.075 172.985 20.315V15.485H171.755V14H173.015V11.75H174.995V14H176.48V15.485H175.01V20.06C175.01 20.86 175.095 21.47 175.265 21.89C175.445 22.3 175.66 22.64 175.91 22.91V23H173.735ZM181.28 23.225C180.36 23.225 179.615 23.075 179.045 22.775C178.485 22.465 178.065 22.07 177.785 21.59C177.515 21.11 177.365 20.62 177.335 20.12H179.285C179.325 20.4 179.425 20.665 179.585 20.915C179.755 21.165 179.985 21.365 180.275 21.515C180.565 21.665 180.93 21.74 181.37 21.74C181.87 21.74 182.245 21.645 182.495 21.455C182.745 21.255 182.87 20.995 182.87 20.675C182.87 20.405 182.765 20.175 182.555 19.985C182.345 19.785 182.015 19.605 181.565 19.445L180.485 19.085C179.985 18.905 179.525 18.71 179.105 18.5C178.695 18.28 178.365 18.005 178.115 17.675C177.875 17.335 177.755 16.905 177.755 16.385C177.755 15.605 178.045 14.975 178.625 14.495C179.205 14.015 180.015 13.775 181.055 13.775C181.805 13.775 182.42 13.9 182.9 14.15C183.39 14.39 183.76 14.72 184.01 15.14C184.26 15.55 184.405 16.01 184.445 16.52H182.57C182.52 16.15 182.365 15.84 182.105 15.59C181.855 15.34 181.48 15.215 180.98 15.215C180.55 15.215 180.22 15.305 179.99 15.485C179.77 15.665 179.66 15.905 179.66 16.205C179.66 16.505 179.77 16.755 179.99 16.955C180.22 17.145 180.565 17.32 181.025 17.48L182.09 17.825C182.59 17.995 183.045 18.19 183.455 18.41C183.865 18.62 184.185 18.895 184.415 19.235C184.655 19.565 184.775 19.99 184.775 20.51C184.775 21.32 184.475 21.975 183.875 22.475C183.285 22.975 182.42 23.225 181.28 23.225ZM190.065 23V14H192.09V23H190.065ZM191.085 12.86C190.715 12.86 190.43 12.76 190.23 12.56C190.03 12.35 189.93 12.08 189.93 11.75C189.93 11.42 190.03 11.155 190.23 10.955C190.43 10.745 190.715 10.64 191.085 10.64C191.465 10.64 191.75 10.745 191.94 10.955C192.14 11.155 192.24 11.42 192.24 11.75C192.24 12.08 192.14 12.35 191.94 12.56C191.75 12.76 191.465 12.86 191.085 12.86ZM194.495 23V14H196.34V15.35H196.7C196.88 14.88 197.165 14.5 197.555 14.21C197.955 13.92 198.5 13.775 199.19 13.775C200.22 13.775 200.975 14.095 201.455 14.735C201.945 15.365 202.19 16.205 202.19 17.255V23H200.165V17.63C200.165 16.93 200.04 16.395 199.79 16.025C199.54 15.645 199.145 15.455 198.605 15.455C197.945 15.455 197.43 15.715 197.06 16.235C196.7 16.745 196.52 17.38 196.52 18.14V23H194.495ZM208.065 23V14H209.895V15.59H210.255C210.315 15.32 210.425 15.055 210.585 14.795C210.745 14.535 210.99 14.325 211.32 14.165C211.66 13.995 212.12 13.91 212.7 13.91H213.09V15.77H212.535C211.665 15.77 211.04 15.995 210.66 16.445C210.28 16.895 210.09 17.58 210.09 18.5V23H208.065ZM217.976 23.225C216.606 23.225 215.561 22.8 214.841 21.95C214.121 21.09 213.761 19.935 213.761 18.485C213.761 17.525 213.921 16.695 214.241 15.995C214.561 15.295 215.031 14.75 215.651 14.36C216.281 13.97 217.046 13.775 217.946 13.775C219.236 13.775 220.221 14.18 220.901 14.99C221.581 15.79 221.921 16.965 221.921 18.515V18.995H215.741C215.791 19.815 216.001 20.475 216.371 20.975C216.751 21.475 217.286 21.725 217.976 21.725C218.496 21.725 218.911 21.575 219.221 21.275C219.541 20.975 219.761 20.59 219.881 20.12H221.816C221.706 20.7 221.496 21.225 221.186 21.695C220.886 22.155 220.471 22.525 219.941 22.805C219.411 23.085 218.756 23.225 217.976 23.225ZM215.756 17.645H219.941C219.901 16.875 219.706 16.28 219.356 15.86C219.016 15.44 218.541 15.23 217.931 15.23C217.301 15.23 216.801 15.435 216.431 15.845C216.061 16.255 215.836 16.855 215.756 17.645ZM226.825 23.225C225.905 23.225 225.16 23.075 224.59 22.775C224.03 22.465 223.61 22.07 223.33 21.59C223.06 21.11 222.91 20.62 222.88 20.12H224.83C224.87 20.4 224.97 20.665 225.13 20.915C225.3 21.165 225.53 21.365 225.82 21.515C226.11 21.665 226.475 21.74 226.915 21.74C227.415 21.74 227.79 21.645 228.04 21.455C228.29 21.255 228.415 20.995 228.415 20.675C228.415 20.405 228.31 20.175 228.1 19.985C227.89 19.785 227.56 19.605 227.11 19.445L226.03 19.085C225.53 18.905 225.07 18.71 224.65 18.5C224.24 18.28 223.91 18.005 223.66 17.675C223.42 17.335 223.3 16.905 223.3 16.385C223.3 15.605 223.59 14.975 224.17 14.495C224.75 14.015 225.56 13.775 226.6 13.775C227.35 13.775 227.965 13.9 228.445 14.15C228.935 14.39 229.305 14.72 229.555 15.14C229.805 15.55 229.95 16.01 229.99 16.52H228.115C228.065 16.15 227.91 15.84 227.65 15.59C227.4 15.34 227.025 15.215 226.525 15.215C226.095 15.215 225.765 15.305 225.535 15.485C225.315 15.665 225.205 15.905 225.205 16.205C225.205 16.505 225.315 16.755 225.535 16.955C225.765 17.145 226.11 17.32 226.57 17.48L227.635 17.825C228.135 17.995 228.59 18.19 229 18.41C229.41 18.62 229.73 18.895 229.96 19.235C230.2 19.565 230.32 19.99 230.32 20.51C230.32 21.32 230.02 21.975 229.42 22.475C228.83 22.975 227.965 23.225 226.825 23.225ZM234.902 23.225C233.872 23.225 233.112 22.905 232.622 22.265C232.132 21.625 231.887 20.785 231.887 19.745V14H233.912V19.37C233.912 20.06 234.037 20.595 234.287 20.975C234.537 21.355 234.932 21.545 235.472 21.545C236.142 21.545 236.657 21.285 237.017 20.765C237.377 20.245 237.557 19.61 237.557 18.86V14H239.582V23H237.767V21.65H237.407C237.247 22.12 236.962 22.5 236.552 22.79C236.142 23.08 235.592 23.225 234.902 23.225ZM242.663 23C242.413 22.7 242.223 22.355 242.093 21.965C241.973 21.575 241.913 21.025 241.913 20.315V11H243.953V20.075C243.953 20.855 244.038 21.455 244.208 21.875C244.378 22.285 244.598 22.63 244.868 22.91V23H242.663ZM247.651 23C247.421 22.73 247.236 22.405 247.096 22.025C246.966 21.645 246.901 21.075 246.901 20.315V15.485H245.671V14H246.931V11.75H248.911V14H250.396V15.485H248.926V20.06C248.926 20.86 249.011 21.47 249.181 21.89C249.361 22.3 249.576 22.64 249.826 22.91V23H247.651ZM255.196 23.225C254.276 23.225 253.531 23.075 252.961 22.775C252.401 22.465 251.981 22.07 251.701 21.59C251.431 21.11 251.281 20.62 251.251 20.12H253.201C253.241 20.4 253.341 20.665 253.501 20.915C253.671 21.165 253.901 21.365 254.191 21.515C254.481 21.665 254.846 21.74 255.286 21.74C255.786 21.74 256.161 21.645 256.411 21.455C256.661 21.255 256.786 20.995 256.786 20.675C256.786 20.405 256.681 20.175 256.471 19.985C256.261 19.785 255.931 19.605 255.481 19.445L254.401 19.085C253.901 18.905 253.441 18.71 253.021 18.5C252.611 18.28 252.281 18.005 252.031 17.675C251.791 17.335 251.671 16.905 251.671 16.385C251.671 15.605 251.961 14.975 252.541 14.495C253.121 14.015 253.931 13.775 254.971 13.775C255.721 13.775 256.336 13.9 256.816 14.15C257.306 14.39 257.676 14.72 257.926 15.14C258.176 15.55 258.321 16.01 258.361 16.52H256.486C256.436 16.15 256.281 15.84 256.021 15.59C255.771 15.34 255.396 15.215 254.896 15.215C254.466 15.215 254.136 15.305 253.906 15.485C253.686 15.665 253.576 15.905 253.576 16.205C253.576 16.505 253.686 16.755 253.906 16.955C254.136 17.145 254.481 17.32 254.941 17.48L256.006 17.825C256.506 17.995 256.961 18.19 257.371 18.41C257.781 18.62 258.101 18.895 258.331 19.235C258.571 19.565 258.691 19.99 258.691 20.51C258.691 21.32 258.391 21.975 257.791 22.475C257.201 22.975 256.336 23.225 255.196 23.225Z" fill="white"/>
<path d="M10.0615 45.3479C9.97819 45.1234 9.97819 44.8764 10.0615 44.6519C10.8732 42.6837 12.251 41.0009 14.0203 39.8168C15.7896 38.6326 17.8706 38.0005 19.9995 38.0005C22.1285 38.0005 24.2095 38.6326 25.9788 39.8168C27.748 41.0009 29.1258 42.6837 29.9375 44.6519C30.0209 44.8764 30.0209 45.1234 29.9375 45.3479C29.1258 47.316 27.748 48.9988 25.9788 50.183C24.2095 51.3671 22.1285 51.9993 19.9995 51.9993C17.8706 51.9993 15.7896 51.3671 14.0203 50.183C12.251 48.9988 10.8732 47.316 10.0615 45.3479Z" stroke="#FAFAFA" stroke-width="2" stroke-linecap="round" stroke-linejoin="round"/>
<path d="M20 48C21.6569 48 23 46.6569 23 45C23 43.3431 21.6569 42 20 42C18.3431 42 17 43.3431 17 45C17 46.6569 18.3431 48 20 48Z" stroke="#FAFAFA" stroke-width="2" stroke-linecap="round" stroke-linejoin="round"/>
<path d="M43.245 52V40.3H45.345V44.875H50.805V40.3H52.905V52H50.805V46.6H45.345V52H43.245ZM55.3465 52V43H57.3715V52H55.3465ZM56.3665 41.86C55.9965 41.86 55.7115 41.76 55.5115 41.56C55.3115 41.35 55.2115 41.08 55.2115 40.75C55.2115 40.42 55.3115 40.155 55.5115 39.955C55.7115 39.745 55.9965 39.64 56.3665 39.64C56.7465 39.64 57.0315 39.745 57.2215 39.955C57.4215 40.155 57.5215 40.42 57.5215 40.75C57.5215 41.08 57.4215 41.35 57.2215 41.56C57.0315 41.76 56.7465 41.86 56.3665 41.86ZM62.7612 52.195C61.9712 52.195 61.3062 52 60.7662 51.61C60.2362 51.21 59.8312 50.655 59.5512 49.945C59.2812 49.235 59.1462 48.415 59.1462 47.485C59.1462 46.545 59.2812 45.725 59.5512 45.025C59.8312 44.325 60.2362 43.78 60.7662 43.39C61.3062 43 61.9662 42.805 62.7462 42.805C63.3462 42.805 63.8362 42.915 64.2162 43.135C64.5962 43.355 64.8912 43.655 65.1012 44.035H65.4612V40H67.4862V52H65.6412V50.83H65.2812C65.0912 51.2 64.7912 51.52 64.3812 51.79C63.9812 52.06 63.4412 52.195 62.7612 52.195ZM63.2562 50.665C63.9362 50.665 64.4762 50.38 64.8762 49.81C65.2762 49.23 65.4762 48.46 65.4762 47.5C65.4762 46.54 65.2762 45.775 64.8762 45.205C64.4762 44.625 63.9362 44.335 63.2562 44.335C62.6162 44.335 62.1212 44.605 61.7712 45.145C61.4212 45.685 61.2462 46.47 61.2462 47.5C61.2462 48.53 61.4212 49.315 61.7712 49.855C62.1212 50.395 62.6162 50.665 63.2562 50.665ZM73.5012 52.225C72.1312 52.225 71.0862 51.8 70.3662 50.95C69.6462 50.09 69.2862 48.935 69.2862 47.485C69.2862 46.525 69.4462 45.695 69.7662 44.995C70.0862 44.295 70.5562 43.75 71.1762 43.36C71.8062 42.97 72.5712 42.775 73.4712 42.775C74.7612 42.775 75.7462 43.18 76.4262 43.99C77.1062 44.79 77.4462 45.965 77.4462 47.515V47.995H71.2662C71.3162 48.815 71.5262 49.475 71.8962 49.975C72.2762 50.475 72.8112 50.725 73.5012 50.725C74.0212 50.725 74.4362 50.575 74.7462 50.275C75.0662 49.975 75.2862 49.59 75.4062 49.12H77.3412C77.2312 49.7 77.0212 50.225 76.7112 50.695C76.4112 51.155 75.9962 51.525 75.4662 51.805C74.9362 52.085 74.2812 52.225 73.5012 52.225ZM71.2812 46.645H75.4662C75.4262 45.875 75.2312 45.28 74.8812 44.86C74.5412 44.44 74.0662 44.23 73.4562 44.23C72.8262 44.23 72.3262 44.435 71.9562 44.845C71.5862 45.255 71.3612 45.855 71.2812 46.645ZM85.7885 52.195C84.9985 52.195 84.3335 52 83.7935 51.61C83.2635 51.21 82.8585 50.655 82.5785 49.945C82.3085 49.235 82.1735 48.415 82.1735 47.485C82.1735 46.545 82.3085 45.725 82.5785 45.025C82.8585 44.325 83.2635 43.78 83.7935 43.39C84.3335 43 84.9935 42.805 85.7735 42.805C86.3735 42.805 86.8635 42.915 87.2435 43.135C87.6235 43.355 87.9185 43.655 88.1285 44.035H88.4885V40H90.5135V52H88.6685V50.83H88.3085C88.1185 51.2 87.8185 51.52 87.4085 51.79C87.0085 52.06 86.4685 52.195 85.7885 52.195ZM86.2835 50.665C86.9635 50.665 87.5035 50.38 87.9035 49.81C88.3035 49.23 88.5035 48.46 88.5035 47.5C88.5035 46.54 88.3035 45.775 87.9035 45.205C87.5035 44.625 86.9635 44.335 86.2835 44.335C85.6435 44.335 85.1485 44.605 84.7985 45.145C84.4485 45.685 84.2735 46.47 84.2735 47.5C84.2735 48.53 84.4485 49.315 84.7985 49.855C85.1485 50.395 85.6435 50.665 86.2835 50.665ZM96.5285 52.225C95.1585 52.225 94.1135 51.8 93.3935 50.95C92.6735 50.09 92.3135 48.935 92.3135 47.485C92.3135 46.525 92.4735 45.695 92.7935 44.995C93.1135 44.295 93.5835 43.75 94.2035 43.36C94.8335 42.97 95.5985 42.775 96.4985 42.775C97.7885 42.775 98.7735 43.18 99.4535 43.99C100.134 44.79 100.474 45.965 100.474 47.515V47.995H94.2935C94.3435 48.815 94.5535 49.475 94.9235 49.975C95.3035 50.475 95.8385 50.725 96.5285 50.725C97.0485 50.725 97.4635 50.575 97.7735 50.275C98.0935 49.975 98.3135 49.59 98.4335 49.12H100.369C100.259 49.7 100.049 50.225 99.7385 50.695C99.4385 51.155 99.0235 51.525 98.4935 51.805C97.9635 52.085 97.3085 52.225 96.5285 52.225ZM94.3085 46.645H98.4935C98.4535 45.875 98.2585 45.28 97.9085 44.86C97.5685 44.44 97.0935 44.23 96.4835 44.23C95.8535 44.23 95.3535 44.435 94.9835 44.845C94.6135 45.255 94.3885 45.855 94.3085 46.645ZM102.917 52C102.667 51.7 102.477 51.355 102.347 50.965C102.227 50.575 102.167 50.025 102.167 49.315V40H104.207V49.075C104.207 49.855 104.292 50.455 104.462 50.875C104.632 51.285 104.852 51.63 105.122 51.91V52H102.917ZM110.275 52.225C108.905 52.225 107.86 51.8 107.14 50.95C106.42 50.09 106.06 48.935 106.06 47.485C106.06 46.525 106.22 45.695 106.54 44.995C106.86 44.295 107.33 43.75 107.95 43.36C108.58 42.97 109.345 42.775 110.245 42.775C111.535 42.775 112.52 43.18 113.2 43.99C113.88 44.79 114.22 45.965 114.22 47.515V47.995H108.04C108.09 48.815 108.3 49.475 108.67 49.975C109.05 50.475 109.585 50.725 110.275 50.725C110.795 50.725 111.21 50.575 111.52 50.275C111.84 49.975 112.06 49.59 112.18 49.12H114.115C114.005 49.7 113.795 50.225 113.485 50.695C113.185 51.155 112.77 51.525 112.24 51.805C111.71 52.085 111.055 52.225 110.275 52.225ZM108.055 46.645H112.24C112.2 45.875 112.005 45.28 111.655 44.86C111.315 44.44 110.84 44.23 110.23 44.23C109.6 44.23 109.1 44.435 108.73 44.845C108.36 45.255 108.135 45.855 108.055 46.645ZM117.203 52C116.973 51.73 116.788 51.405 116.648 51.025C116.518 50.645 116.453 50.075 116.453 49.315V44.485H115.223V43H116.483V40.75H118.463V43H119.948V44.485H118.478V49.06C118.478 49.86 118.563 50.47 118.733 50.89C118.913 51.3 119.128 51.64 119.378 51.91V52H117.203ZM125.198 52.225C123.828 52.225 122.783 51.8 122.063 50.95C121.343 50.09 120.983 48.935 120.983 47.485C120.983 46.525 121.143 45.695 121.463 44.995C121.783 44.295 122.253 43.75 122.873 43.36C123.503 42.97 124.268 42.775 125.168 42.775C126.458 42.775 127.443 43.18 128.123 43.99C128.803 44.79 129.143 45.965 129.143 47.515V47.995H122.963C123.013 48.815 123.223 49.475 123.593 49.975C123.973 50.475 124.508 50.725 125.198 50.725C125.718 50.725 126.133 50.575 126.443 50.275C126.763 49.975 126.983 49.59 127.103 49.12H129.038C128.928 49.7 128.718 50.225 128.408 50.695C128.108 51.155 127.693 51.525 127.163 51.805C126.633 52.085 125.978 52.225 125.198 52.225ZM122.978 46.645H127.163C127.123 45.875 126.928 45.28 126.578 44.86C126.238 44.44 125.763 44.23 125.153 44.23C124.523 44.23 124.023 44.435 123.653 44.845C123.283 45.255 123.058 45.855 122.978 46.645ZM133.882 52.195C133.092 52.195 132.427 52 131.887 51.61C131.357 51.21 130.952 50.655 130.672 49.945C130.402 49.235 130.267 48.415 130.267 47.485C130.267 46.545 130.402 45.725 130.672 45.025C130.952 44.325 131.357 43.78 131.887 43.39C132.427 43 133.087 42.805 133.867 42.805C134.467 42.805 134.957 42.915 135.337 43.135C135.717 43.355 136.012 43.655 136.222 44.035H136.582V40H138.607V52H136.762V50.83H136.402C136.212 51.2 135.912 51.52 135.502 51.79C135.102 52.06 134.562 52.195 133.882 52.195ZM134.377 50.665C135.057 50.665 135.597 50.38 135.997 49.81C136.397 49.23 136.597 48.46 136.597 47.5C136.597 46.54 136.397 45.775 135.997 45.205C135.597 44.625 135.057 44.335 134.377 44.335C133.737 44.335 133.242 44.605 132.892 45.145C132.542 45.685 132.367 46.47 132.367 47.5C132.367 48.53 132.542 49.315 132.892 49.855C133.242 50.395 133.737 50.665 134.377 50.665ZM149.351 52.195C148.671 52.195 148.126 52.06 147.716 51.79C147.316 51.52 147.021 51.2 146.831 50.83H146.471V52H144.626V40H146.651V44.035H147.011C147.221 43.655 147.516 43.355 147.896 43.135C148.276 42.915 148.766 42.805 149.366 42.805C150.146 42.805 150.801 43 151.331 43.39C151.871 43.78 152.276 44.325 152.546 45.025C152.826 45.725 152.966 46.545 152.966 47.485C152.966 48.415 152.826 49.235 152.546 49.945C152.276 50.655 151.871 51.21 151.331 51.61C150.801 52 150.141 52.195 149.351 52.195ZM148.856 50.665C149.496 50.665 149.991 50.395 150.341 49.855C150.691 49.315 150.866 48.53 150.866 47.5C150.866 46.47 150.691 45.685 150.341 45.145C149.991 44.605 149.496 44.335 148.856 44.335C148.176 44.335 147.636 44.625 147.236 45.205C146.836 45.775 146.636 46.54 146.636 47.5C146.636 48.46 146.836 49.23 147.236 49.81C147.636 50.38 148.176 50.665 148.856 50.665ZM158.381 52.225C156.961 52.225 155.896 51.8 155.186 50.95C154.486 50.09 154.136 48.94 154.136 47.5C154.136 46.06 154.486 44.915 155.186 44.065C155.896 43.205 156.961 42.775 158.381 42.775C159.821 42.775 160.891 43.205 161.591 44.065C162.291 44.915 162.641 46.06 162.641 47.5C162.641 48.94 162.291 50.09 161.591 50.95C160.891 51.8 159.821 52.225 158.381 52.225ZM158.396 50.755C159.136 50.755 159.676 50.475 160.016 49.915C160.366 49.345 160.541 48.54 160.541 47.5C160.541 46.46 160.366 45.66 160.016 45.1C159.676 44.53 159.136 44.245 158.396 44.245C157.646 44.245 157.096 44.53 156.746 45.1C156.406 45.66 156.236 46.46 156.236 47.5C156.236 48.54 156.406 49.345 156.746 49.915C157.096 50.475 157.646 50.755 158.396 50.755ZM165.649 52C165.419 51.73 165.234 51.405 165.094 51.025C164.964 50.645 164.899 50.075 164.899 49.315V44.485H163.669V43H164.929V40.75H166.909V43H168.394V44.485H166.924V49.06C166.924 49.86 167.009 50.47 167.179 50.89C167.359 51.3 167.574 51.64 167.824 51.91V52H165.649ZM173.194 52.225C172.274 52.225 171.529 52.075 170.959 51.775C170.399 51.465 169.979 51.07 169.699 50.59C169.429 50.11 169.279 49.62 169.249 49.12H171.199C171.239 49.4 171.339 49.665 171.499 49.915C171.669 50.165 171.899 50.365 172.189 50.515C172.479 50.665 172.844 50.74 173.284 50.74C173.784 50.74 174.159 50.645 174.409 50.455C174.659 50.255 174.784 49.995 174.784 49.675C174.784 49.405 174.679 49.175 174.469 48.985C174.259 48.785 173.929 48.605 173.479 48.445L172.399 48.085C171.899 47.905 171.439 47.71 171.019 47.5C170.609 47.28 170.279 47.005 170.029 46.675C169.789 46.335 169.669 45.905 169.669 45.385C169.669 44.605 169.959 43.975 170.539 43.495C171.119 43.015 171.929 42.775 172.969 42.775C173.719 42.775 174.334 42.9 174.814 43.15C175.304 43.39 175.674 43.72 175.924 44.14C176.174 44.55 176.319 45.01 176.359 45.52H174.484C174.434 45.15 174.279 44.84 174.019 44.59C173.769 44.34 173.394 44.215 172.894 44.215C172.464 44.215 172.134 44.305 171.904 44.485C171.684 44.665 171.574 44.905 171.574 45.205C171.574 45.505 171.684 45.755 171.904 45.955C172.134 46.145 172.479 46.32 172.939 46.48L174.004 46.825C174.504 46.995 174.959 47.19 175.369 47.41C175.779 47.62 176.099 47.895 176.329 48.235C176.569 48.565 176.689 48.99 176.689 49.51C176.689 50.32 176.389 50.975 175.789 51.475C175.199 51.975 174.334 52.225 173.194 52.225ZM181.979 52V43H184.004V52H181.979ZM182.999 41.86C182.629 41.86 182.344 41.76 182.144 41.56C181.944 41.35 181.844 41.08 181.844 40.75C181.844 40.42 181.944 40.155 182.144 39.955C182.344 39.745 182.629 39.64 182.999 39.64C183.379 39.64 183.664 39.745 183.854 39.955C184.054 40.155 184.154 40.42 184.154 40.75C184.154 41.08 184.054 41.35 183.854 41.56C183.664 41.76 183.379 41.86 182.999 41.86ZM186.409 52V43H188.254V44.35H188.614C188.794 43.88 189.079 43.5 189.469 43.21C189.869 42.92 190.414 42.775 191.104 42.775C192.134 42.775 192.889 43.095 193.369 43.735C193.859 44.365 194.104 45.205 194.104 46.255V52H192.079V46.63C192.079 45.93 191.954 45.395 191.704 45.025C191.454 44.645 191.059 44.455 190.519 44.455C189.859 44.455 189.344 44.715 188.974 45.235C188.614 45.745 188.434 46.38 188.434 47.14V52H186.409ZM199.979 52V43H201.809V44.59H202.169C202.229 44.32 202.339 44.055 202.499 43.795C202.659 43.535 202.904 43.325 203.234 43.165C203.574 42.995 204.034 42.91 204.614 42.91H205.004V44.77H204.449C203.579 44.77 202.954 44.995 202.574 45.445C202.194 45.895 202.004 46.58 202.004 47.5V52H199.979ZM209.89 52.225C208.52 52.225 207.475 51.8 206.755 50.95C206.035 50.09 205.675 48.935 205.675 47.485C205.675 46.525 205.835 45.695 206.155 44.995C206.475 44.295 206.945 43.75 207.565 43.36C208.195 42.97 208.96 42.775 209.86 42.775C211.15 42.775 212.135 43.18 212.815 43.99C213.495 44.79 213.835 45.965 213.835 47.515V47.995H207.655C207.705 48.815 207.915 49.475 208.285 49.975C208.665 50.475 209.2 50.725 209.89 50.725C210.41 50.725 210.825 50.575 211.135 50.275C211.455 49.975 211.675 49.59 211.795 49.12H213.73C213.62 49.7 213.41 50.225 213.1 50.695C212.8 51.155 212.385 51.525 211.855 51.805C211.325 52.085 210.67 52.225 209.89 52.225ZM207.67 46.645H211.855C211.815 45.875 211.62 45.28 211.27 44.86C210.93 44.44 210.455 44.23 209.845 44.23C209.215 44.23 208.715 44.435 208.345 44.845C207.975 45.255 207.75 45.855 207.67 46.645ZM218.739 52.225C217.819 52.225 217.074 52.075 216.504 51.775C215.944 51.465 215.524 51.07 215.244 50.59C214.974 50.11 214.824 49.62 214.794 49.12H216.744C216.784 49.4 216.884 49.665 217.044 49.915C217.214 50.165 217.444 50.365 217.734 50.515C218.024 50.665 218.389 50.74 218.829 50.74C219.329 50.74 219.704 50.645 219.954 50.455C220.204 50.255 220.329 49.995 220.329 49.675C220.329 49.405 220.224 49.175 220.014 48.985C219.804 48.785 219.474 48.605 219.024 48.445L217.944 48.085C217.444 47.905 216.984 47.71 216.564 47.5C216.154 47.28 215.824 47.005 215.574 46.675C215.334 46.335 215.214 45.905 215.214 45.385C215.214 44.605 215.504 43.975 216.084 43.495C216.664 43.015 217.474 42.775 218.514 42.775C219.264 42.775 219.879 42.9 220.359 43.15C220.849 43.39 221.219 43.72 221.469 44.14C221.719 44.55 221.864 45.01 221.904 45.52H220.029C219.979 45.15 219.824 44.84 219.564 44.59C219.314 44.34 218.939 44.215 218.439 44.215C218.009 44.215 217.679 44.305 217.449 44.485C217.229 44.665 217.119 44.905 217.119 45.205C217.119 45.505 217.229 45.755 217.449 45.955C217.679 46.145 218.024 46.32 218.484 46.48L219.549 46.825C220.049 46.995 220.504 47.19 220.914 47.41C221.324 47.62 221.644 47.895 221.874 48.235C222.114 48.565 222.234 48.99 222.234 49.51C222.234 50.32 221.934 50.975 221.334 51.475C220.744 51.975 219.879 52.225 218.739 52.225ZM226.816 52.225C225.786 52.225 225.026 51.905 224.536 51.265C224.046 50.625 223.801 49.785 223.801 48.745V43H225.826V48.37C225.826 49.06 225.951 49.595 226.201 49.975C226.451 50.355 226.846 50.545 227.386 50.545C228.056 50.545 228.571 50.285 228.931 49.765C229.291 49.245 229.471 48.61 229.471 47.86V43H231.496V52H229.681V50.65H229.321C229.161 51.12 228.876 51.5 228.466 51.79C228.056 52.08 227.506 52.225 226.816 52.225ZM234.578 52C234.328 51.7 234.138 51.355 234.008 50.965C233.888 50.575 233.827 50.025 233.827 49.315V40H235.868V49.075C235.868 49.855 235.953 50.455 236.123 50.875C236.293 51.285 236.513 51.63 236.783 51.91V52H234.578ZM239.565 52C239.335 51.73 239.15 51.405 239.01 51.025C238.88 50.645 238.815 50.075 238.815 49.315V44.485H237.585V43H238.845V40.75H240.825V43H242.31V44.485H240.84V49.06C240.84 49.86 240.925 50.47 241.095 50.89C241.275 51.3 241.49 51.64 241.74 51.91V52H239.565ZM247.11 52.225C246.19 52.225 245.445 52.075 244.875 51.775C244.315 51.465 243.895 51.07 243.615 50.59C243.345 50.11 243.195 49.62 243.165 49.12H245.115C245.155 49.4 245.255 49.665 245.415 49.915C245.585 50.165 245.815 50.365 246.105 50.515C246.395 50.665 246.76 50.74 247.2 50.74C247.7 50.74 248.075 50.645 248.325 50.455C248.575 50.255 248.7 49.995 248.7 49.675C248.7 49.405 248.595 49.175 248.385 48.985C248.175 48.785 247.845 48.605 247.395 48.445L246.315 48.085C245.815 47.905 245.355 47.71 244.935 47.5C244.525 47.28 244.195 47.005 243.945 46.675C243.705 46.335 243.585 45.905 243.585 45.385C243.585 44.605 243.875 43.975 244.455 43.495C245.035 43.015 245.845 42.775 246.885 42.775C247.635 42.775 248.25 42.9 248.73 43.15C249.22 43.39 249.59 43.72 249.84 44.14C250.09 44.55 250.235 45.01 250.275 45.52H248.4C248.35 45.15 248.195 44.84 247.935 44.59C247.685 44.34 247.31 44.215 246.81 44.215C246.38 44.215 246.05 44.305 245.82 44.485C245.6 44.665 245.49 44.905 245.49 45.205C245.49 45.505 245.6 45.755 245.82 45.955C246.05 46.145 246.395 46.32 246.855 46.48L247.92 46.825C248.42 46.995 248.875 47.19 249.285 47.41C249.695 47.62 250.015 47.895 250.245 48.235C250.485 48.565 250.605 48.99 250.605 49.51C250.605 50.32 250.305 50.975 249.705 51.475C249.115 51.975 248.25 52.225 247.11 52.225Z" fill="white"/>
</svg>
