<svg width="42" height="42" viewBox="0 0 42 42" fill="none" xmlns="http://www.w3.org/2000/svg">
<path fill-rule="evenodd" clip-rule="evenodd" d="M6.6439 22.9491L6.48404 24.2183L15.4211 17.2808L15.422 17.2737L14.1599 17.1147L6.6439 22.9491ZM17.5313 16.5315L18.2827 16.6261L21.3051 20.5197L25.1986 17.4973L25.4686 17.5313L25.3337 18.6022L20.8751 21.9922L17.4056 17.5293L17.5313 16.5315ZM17.0932 20.0097L15.2818 34.3904L23.2191 35.3902L25.0222 21.0753L20.5626 24.4726L17.0932 20.0097ZM27.2519 19.3766L25.2034 35.6401C29.587 36.1923 33.5883 33.0862 34.1404 28.7026L35.6401 16.7967L31.3482 16.2561L27.2519 19.3766ZM28.8356 15.9396L27.563 16.9072L27.7028 15.7969L28.8356 15.9396ZM15.1087 19.7612L6.3055 26.5947C6.48768 30.4044 9.38325 33.6474 13.2975 34.1404L15.1087 19.7612Z" fill="#8A9DE4"/>
<path fill-rule="evenodd" clip-rule="evenodd" d="M17.2965 2.39129C10.7211 1.56305 4.7192 6.2221 3.89096 12.7976L2.3913 24.7035C1.56306 31.2789 6.2221 37.2808 12.7976 38.1091L24.7035 39.6087C31.2789 40.437 37.2808 35.7779 38.1091 29.2025L41.1084 5.39062L17.2965 2.39129ZM17.0466 4.37561C11.5671 3.68541 6.56548 7.56795 5.87528 13.0475L4.37562 24.9534C3.68542 30.433 7.56796 35.4345 13.0475 36.1247L24.9534 37.6244C30.433 38.3146 35.4346 34.4321 36.1248 28.9525L38.8741 7.12499L17.0466 4.37561Z" fill="#8A9DE4"/>
<path d="M16.5391 16.4065L6.48492 24.2112L6.79735 21.7308L16.8515 13.9261L21.1884 19.5047L34.8349 9.12881L35.3769 9.82702L35.9189 10.5252L20.8759 21.9851L16.5391 16.4065Z" fill="#8A9DE4"/>
<path d="M36.6399 8.85938L31.6791 8.23452L36.015 13.8202L36.6399 8.85938Z" fill="#8A9DE4"/>
</svg>
